<svg xmlns="http://www.w3.org/2000/svg" xmlns:xlink="http://www.w3.org/1999/xlink" width="500" zoomAndPan="magnify" viewBox="0 0 375 374.999991" height="500" preserveAspectRatio="xMidYMid meet" version="1.0"><defs><clipPath id="b634652b1c"><path d="M 344 330 L 366.9375 330 L 366.9375 353 L 344 353 Z M 344 330 " clip-rule="nonzero"/></clipPath><clipPath id="d78a05d445"><path d="M 344 308 L 366.9375 308 L 366.9375 331 L 344 331 Z M 344 308 " clip-rule="nonzero"/></clipPath><clipPath id="11ca697924"><path d="M 344 286 L 366.9375 286 L 366.9375 309 L 344 309 Z M 344 286 " clip-rule="nonzero"/></clipPath><clipPath id="715ab8a657"><path d="M 344 264 L 366.9375 264 L 366.9375 287 L 344 287 Z M 344 264 " clip-rule="nonzero"/></clipPath><clipPath id="255186dac7"><path d="M 344 242 L 366.9375 242 L 366.9375 265 L 344 265 Z M 344 242 " clip-rule="nonzero"/></clipPath><clipPath id="bb59109bb2"><path d="M 344 220 L 366.9375 220 L 366.9375 243 L 344 243 Z M 344 220 " clip-rule="nonzero"/></clipPath><clipPath id="aa64cc10df"><path d="M 344 198 L 366.9375 198 L 366.9375 221 L 344 221 Z M 344 198 " clip-rule="nonzero"/></clipPath><clipPath id="5b9128870a"><path d="M 344 176 L 366.9375 176 L 366.9375 199 L 344 199 Z M 344 176 " clip-rule="nonzero"/></clipPath><clipPath id="2afef85663"><path d="M 344 154 L 366.9375 154 L 366.9375 177 L 344 177 Z M 344 154 " clip-rule="nonzero"/></clipPath><clipPath id="1522d99b7e"><path d="M 344 132 L 366.9375 132 L 366.9375 155 L 344 155 Z M 344 132 " clip-rule="nonzero"/></clipPath><clipPath id="90d327f5e1"><path d="M 344 110 L 366.9375 110 L 366.9375 133 L 344 133 Z M 344 110 " clip-rule="nonzero"/></clipPath><clipPath id="6430f8979b"><path d="M 344 88 L 366.9375 88 L 366.9375 111 L 344 111 Z M 344 88 " clip-rule="nonzero"/></clipPath><clipPath id="588a9eed00"><path d="M 8.4375 330 L 31 330 L 31 353 L 8.4375 353 Z M 8.4375 330 " clip-rule="nonzero"/></clipPath><clipPath id="d820230a22"><path d="M 8.4375 308 L 31 308 L 31 331 L 8.4375 331 Z M 8.4375 308 " clip-rule="nonzero"/></clipPath><clipPath id="e4c80795f4"><path d="M 8.4375 286 L 31 286 L 31 309 L 8.4375 309 Z M 8.4375 286 " clip-rule="nonzero"/></clipPath><clipPath id="3205259395"><path d="M 8.4375 264 L 31 264 L 31 287 L 8.4375 287 Z M 8.4375 264 " clip-rule="nonzero"/></clipPath><clipPath id="d7db0f8796"><path d="M 8.4375 242 L 31 242 L 31 265 L 8.4375 265 Z M 8.4375 242 " clip-rule="nonzero"/></clipPath><clipPath id="1846121665"><path d="M 8.4375 220 L 31 220 L 31 243 L 8.4375 243 Z M 8.4375 220 " clip-rule="nonzero"/></clipPath><clipPath id="f42f4fc0ed"><path d="M 8.4375 198 L 31 198 L 31 221 L 8.4375 221 Z M 8.4375 198 " clip-rule="nonzero"/></clipPath><clipPath id="72ecf9f637"><path d="M 8.4375 176 L 31 176 L 31 199 L 8.4375 199 Z M 8.4375 176 " clip-rule="nonzero"/></clipPath><clipPath id="2cb601c068"><path d="M 8.4375 154 L 31 154 L 31 177 L 8.4375 177 Z M 8.4375 154 " clip-rule="nonzero"/></clipPath><clipPath id="9d16053647"><path d="M 8.4375 132 L 31 132 L 31 155 L 8.4375 155 Z M 8.4375 132 " clip-rule="nonzero"/></clipPath><clipPath id="a4257cb531"><path d="M 8.4375 110 L 31 110 L 31 133 L 8.4375 133 Z M 8.4375 110 " clip-rule="nonzero"/></clipPath><clipPath id="20c8d0ef8b"><path d="M 8.4375 88 L 31 88 L 31 111 L 8.4375 111 Z M 8.4375 88 " clip-rule="nonzero"/></clipPath></defs><g clip-path="url(#b634652b1c)"><path fill="#edce3a" d="M 366.746094 330.921875 L 366.746094 352.972656 L 344.402344 352.972656 L 344.402344 330.921875 L 366.746094 330.921875 " fill-opacity="1" fill-rule="nonzero"/></g><g clip-path="url(#d78a05d445)"><path fill="#edce3a" d="M 366.746094 308.816406 L 366.746094 330.921875 L 344.402344 330.921875 L 344.402344 308.816406 L 366.746094 308.816406 " fill-opacity="1" fill-rule="nonzero"/></g><g clip-path="url(#11ca697924)"><path fill="#edce3a" d="M 366.746094 286.769531 L 366.746094 308.816406 L 344.402344 308.816406 L 344.402344 286.769531 L 366.746094 286.769531 " fill-opacity="1" fill-rule="nonzero"/></g><g clip-path="url(#715ab8a657)"><path fill="#edce3a" d="M 366.746094 264.710938 L 366.746094 286.769531 L 344.402344 286.769531 L 344.402344 264.710938 L 366.746094 264.710938 " fill-opacity="1" fill-rule="nonzero"/></g><g clip-path="url(#255186dac7)"><path fill="#edce3a" d="M 366.746094 242.667969 L 366.746094 264.710938 L 344.402344 264.710938 L 344.402344 242.667969 L 366.746094 242.667969 " fill-opacity="1" fill-rule="nonzero"/></g><g clip-path="url(#bb59109bb2)"><path fill="#edce3a" d="M 366.746094 220.554688 L 366.746094 242.667969 L 344.402344 242.667969 L 344.402344 220.554688 L 366.746094 220.554688 " fill-opacity="1" fill-rule="nonzero"/></g><g clip-path="url(#aa64cc10df)"><path fill="#f9ad2b" d="M 366.746094 198.503906 L 366.746094 220.554688 L 344.402344 220.554688 L 344.402344 198.503906 L 366.746094 198.503906 " fill-opacity="1" fill-rule="nonzero"/></g><g clip-path="url(#5b9128870a)"><path fill="#bf955d" d="M 366.746094 176.457031 L 366.746094 198.503906 L 344.402344 198.503906 L 344.402344 176.457031 L 366.746094 176.457031 " fill-opacity="1" fill-rule="nonzero"/></g><g clip-path="url(#2afef85663)"><path fill="#bf955d" d="M 366.746094 154.40625 L 366.746094 176.457031 L 344.402344 176.457031 L 344.402344 154.40625 L 366.746094 154.40625 " fill-opacity="1" fill-rule="nonzero"/></g><g clip-path="url(#1522d99b7e)"><path fill="#bf955d" d="M 366.746094 132.300781 L 366.746094 154.40625 L 344.402344 154.40625 L 344.402344 132.300781 L 366.746094 132.300781 " fill-opacity="1" fill-rule="nonzero"/></g><g clip-path="url(#90d327f5e1)"><path fill="#bf955d" d="M 366.746094 110.25 L 366.746094 132.300781 L 344.402344 132.300781 L 344.402344 110.25 L 366.746094 110.25 " fill-opacity="1" fill-rule="nonzero"/></g><g clip-path="url(#6430f8979b)"><path fill="#bf955d" d="M 366.746094 88.199219 L 366.746094 110.25 L 344.402344 110.25 L 344.402344 88.199219 L 366.746094 88.199219 " fill-opacity="1" fill-rule="nonzero"/></g><path fill="#edce3a" d="M 344.402344 352.972656 L 344.402344 375.023438 L 322.011719 375.023438 L 322.011719 352.972656 L 344.402344 352.972656 " fill-opacity="1" fill-rule="nonzero"/><path fill="#edce3a" d="M 344.402344 330.921875 L 344.402344 352.972656 L 322.011719 352.972656 L 322.011719 330.921875 L 344.402344 330.921875 " fill-opacity="1" fill-rule="nonzero"/><path fill="#bf7648" d="M 344.402344 308.816406 L 344.402344 330.921875 L 322.011719 330.921875 L 322.011719 308.816406 L 344.402344 308.816406 " fill-opacity="1" fill-rule="nonzero"/><path fill="#bf5c46" d="M 344.402344 286.769531 L 344.402344 308.816406 L 322.011719 308.816406 L 322.011719 286.769531 L 344.402344 286.769531 " fill-opacity="1" fill-rule="nonzero"/><path fill="#bf7648" d="M 344.402344 264.710938 L 344.402344 286.769531 L 322.011719 286.769531 L 322.011719 264.710938 L 344.402344 264.710938 " fill-opacity="1" fill-rule="nonzero"/><path fill="#bf7648" d="M 344.402344 242.667969 L 344.402344 264.710938 L 322.011719 264.710938 L 322.011719 242.667969 L 344.402344 242.667969 " fill-opacity="1" fill-rule="nonzero"/><path fill="#edce3a" d="M 344.402344 220.554688 L 344.402344 242.667969 L 322.011719 242.667969 L 322.011719 220.554688 L 344.402344 220.554688 " fill-opacity="1" fill-rule="nonzero"/><path fill="#ffffff" d="M 344.402344 198.503906 L 344.402344 220.554688 L 322.011719 220.554688 L 322.011719 198.503906 L 344.402344 198.503906 " fill-opacity="1" fill-rule="nonzero"/><path fill="#f9ad2b" d="M 344.402344 176.457031 L 344.402344 198.503906 L 322.011719 198.503906 L 322.011719 176.457031 L 344.402344 176.457031 " fill-opacity="1" fill-rule="nonzero"/><path fill="#76482c" d="M 344.402344 154.40625 L 344.402344 176.457031 L 322.011719 176.457031 L 322.011719 154.40625 L 344.402344 154.40625 " fill-opacity="1" fill-rule="nonzero"/><path fill="#76482c" d="M 344.402344 132.300781 L 344.402344 154.40625 L 322.011719 154.40625 L 322.011719 132.300781 L 344.402344 132.300781 " fill-opacity="1" fill-rule="nonzero"/><path fill="#76482c" d="M 344.402344 110.25 L 344.402344 132.300781 L 322.011719 132.300781 L 322.011719 110.25 L 344.402344 110.25 " fill-opacity="1" fill-rule="nonzero"/><path fill="#bf955d" d="M 344.402344 88.199219 L 344.402344 110.25 L 322.011719 110.25 L 322.011719 88.199219 L 344.402344 88.199219 " fill-opacity="1" fill-rule="nonzero"/><path fill="#bf955d" d="M 344.402344 66.148438 L 344.402344 88.199219 L 322.011719 88.199219 L 322.011719 66.148438 L 344.402344 66.148438 " fill-opacity="1" fill-rule="nonzero"/><path fill="#edce3a" d="M 322.011719 352.972656 L 322.011719 375.023438 L 299.613281 375.023438 L 299.613281 352.972656 L 322.011719 352.972656 " fill-opacity="1" fill-rule="nonzero"/><path fill="#bf7648" d="M 322.011719 330.921875 L 322.011719 352.972656 L 299.613281 352.972656 L 299.613281 330.921875 L 322.011719 330.921875 " fill-opacity="1" fill-rule="nonzero"/><path fill="#bf7648" d="M 322.011719 308.816406 L 322.011719 330.921875 L 299.613281 330.921875 L 299.613281 308.816406 L 322.011719 308.816406 " fill-opacity="1" fill-rule="nonzero"/><path fill="#bf5c46" d="M 322.011719 286.769531 L 322.011719 308.816406 L 299.613281 308.816406 L 299.613281 286.769531 L 322.011719 286.769531 " fill-opacity="1" fill-rule="nonzero"/><path fill="#bf7648" d="M 322.011719 264.710938 L 322.011719 286.769531 L 299.613281 286.769531 L 299.613281 264.710938 L 322.011719 264.710938 " fill-opacity="1" fill-rule="nonzero"/><path fill="#bf7648" d="M 322.011719 242.667969 L 322.011719 264.710938 L 299.613281 264.710938 L 299.613281 242.667969 L 322.011719 242.667969 " fill-opacity="1" fill-rule="nonzero"/><path fill="#ffffff" d="M 322.011719 220.554688 L 322.011719 242.667969 L 299.613281 242.667969 L 299.613281 220.554688 L 322.011719 220.554688 " fill-opacity="1" fill-rule="nonzero"/><path fill="#ffffff" d="M 322.011719 198.503906 L 322.011719 220.554688 L 299.613281 220.554688 L 299.613281 198.503906 L 322.011719 198.503906 " fill-opacity="1" fill-rule="nonzero"/><path fill="#ffffff" d="M 322.011719 176.457031 L 322.011719 198.503906 L 299.613281 198.503906 L 299.613281 176.457031 L 322.011719 176.457031 " fill-opacity="1" fill-rule="nonzero"/><path fill="#f9ad2b" d="M 322.011719 154.40625 L 322.011719 176.457031 L 299.613281 176.457031 L 299.613281 154.40625 L 322.011719 154.40625 " fill-opacity="1" fill-rule="nonzero"/><path fill="#76482c" d="M 322.011719 132.300781 L 322.011719 154.40625 L 299.613281 154.40625 L 299.613281 132.300781 L 322.011719 132.300781 " fill-opacity="1" fill-rule="nonzero"/><path fill="#76482c" d="M 322.011719 110.25 L 322.011719 132.300781 L 299.613281 132.300781 L 299.613281 110.25 L 322.011719 110.25 " fill-opacity="1" fill-rule="nonzero"/><path fill="#76482c" d="M 322.011719 88.199219 L 322.011719 110.25 L 299.613281 110.25 L 299.613281 88.199219 L 322.011719 88.199219 " fill-opacity="1" fill-rule="nonzero"/><path fill="#bf955d" d="M 322.011719 66.148438 L 322.011719 88.199219 L 299.613281 88.199219 L 299.613281 66.148438 L 322.011719 66.148438 " fill-opacity="1" fill-rule="nonzero"/><path fill="#bf955d" d="M 322.011719 44.097656 L 322.011719 66.148438 L 299.613281 66.148438 L 299.613281 44.097656 L 322.011719 44.097656 " fill-opacity="1" fill-rule="nonzero"/><path fill="#edce3a" d="M 299.613281 352.972656 L 299.613281 375.023438 L 277.222656 375.023438 L 277.222656 352.972656 L 299.613281 352.972656 " fill-opacity="1" fill-rule="nonzero"/><path fill="#bf7648" d="M 299.613281 330.921875 L 299.613281 352.972656 L 277.222656 352.972656 L 277.222656 330.921875 L 299.613281 330.921875 " fill-opacity="1" fill-rule="nonzero"/><path fill="#bf7648" d="M 299.613281 308.816406 L 299.613281 330.921875 L 277.222656 330.921875 L 277.222656 308.816406 L 299.613281 308.816406 " fill-opacity="1" fill-rule="nonzero"/><path fill="#bf5c46" d="M 299.613281 286.769531 L 299.613281 308.816406 L 277.222656 308.816406 L 277.222656 286.769531 L 299.613281 286.769531 " fill-opacity="1" fill-rule="nonzero"/><path fill="#bf7648" d="M 299.613281 264.710938 L 299.613281 286.769531 L 277.222656 286.769531 L 277.222656 264.710938 L 299.613281 264.710938 " fill-opacity="1" fill-rule="nonzero"/><path fill="#bf7648" d="M 299.613281 242.667969 L 299.613281 264.710938 L 277.222656 264.710938 L 277.222656 242.667969 L 299.613281 242.667969 " fill-opacity="1" fill-rule="nonzero"/><path fill="#edce3a" d="M 299.613281 220.554688 L 299.613281 242.667969 L 277.222656 242.667969 L 277.222656 220.554688 L 299.613281 220.554688 " fill-opacity="1" fill-rule="nonzero"/><path fill="#ffffff" d="M 299.613281 198.503906 L 299.613281 220.554688 L 277.222656 220.554688 L 277.222656 198.503906 L 299.613281 198.503906 " fill-opacity="1" fill-rule="nonzero"/><path fill="#f9ad2b" d="M 299.613281 176.457031 L 299.613281 198.503906 L 277.222656 198.503906 L 277.222656 176.457031 L 299.613281 176.457031 " fill-opacity="1" fill-rule="nonzero"/><path fill="#f9ad2b" d="M 299.613281 154.40625 L 299.613281 176.457031 L 277.222656 176.457031 L 277.222656 154.40625 L 299.613281 154.40625 " fill-opacity="1" fill-rule="nonzero"/><path fill="#76482c" d="M 299.613281 132.300781 L 299.613281 154.40625 L 277.222656 154.40625 L 277.222656 132.300781 L 299.613281 132.300781 " fill-opacity="1" fill-rule="nonzero"/><path fill="#76482c" d="M 299.613281 110.25 L 299.613281 132.300781 L 277.222656 132.300781 L 277.222656 110.25 L 299.613281 110.25 " fill-opacity="1" fill-rule="nonzero"/><path fill="#76482c" d="M 299.613281 88.199219 L 299.613281 110.25 L 277.222656 110.25 L 277.222656 88.199219 L 299.613281 88.199219 " fill-opacity="1" fill-rule="nonzero"/><path fill="#76482c" d="M 299.613281 66.148438 L 299.613281 88.199219 L 277.222656 88.199219 L 277.222656 66.148438 L 299.613281 66.148438 " fill-opacity="1" fill-rule="nonzero"/><path fill="#bf955d" d="M 299.613281 44.097656 L 299.613281 66.148438 L 277.222656 66.148438 L 277.222656 44.097656 L 299.613281 44.097656 " fill-opacity="1" fill-rule="nonzero"/><path fill="#bf7648" d="M 299.613281 21.996094 L 299.613281 44.097656 L 277.222656 44.097656 L 277.222656 21.996094 L 299.613281 21.996094 " fill-opacity="1" fill-rule="nonzero"/><path fill="#edce3a" d="M 277.222656 352.972656 L 277.222656 375.023438 L 254.824219 375.023438 L 254.824219 352.972656 L 277.222656 352.972656 " fill-opacity="1" fill-rule="nonzero"/><path fill="#bf7648" d="M 277.222656 330.921875 L 277.222656 352.972656 L 254.824219 352.972656 L 254.824219 330.921875 L 277.222656 330.921875 " fill-opacity="1" fill-rule="nonzero"/><path fill="#bf7648" d="M 277.222656 308.816406 L 277.222656 330.921875 L 254.824219 330.921875 L 254.824219 308.816406 L 277.222656 308.816406 " fill-opacity="1" fill-rule="nonzero"/><path fill="#bf5c46" d="M 277.222656 286.769531 L 277.222656 308.816406 L 254.824219 308.816406 L 254.824219 286.769531 L 277.222656 286.769531 " fill-opacity="1" fill-rule="nonzero"/><path fill="#bf7648" d="M 277.222656 264.710938 L 277.222656 286.769531 L 254.824219 286.769531 L 254.824219 264.710938 L 277.222656 264.710938 " fill-opacity="1" fill-rule="nonzero"/><path fill="#bf7648" d="M 277.222656 242.667969 L 277.222656 264.710938 L 254.824219 264.710938 L 254.824219 242.667969 L 277.222656 242.667969 " fill-opacity="1" fill-rule="nonzero"/><path fill="#edce3a" d="M 277.222656 220.554688 L 277.222656 242.667969 L 254.824219 242.667969 L 254.824219 220.554688 L 277.222656 220.554688 " fill-opacity="1" fill-rule="nonzero"/><path fill="#fcca29" d="M 277.222656 198.503906 L 277.222656 220.554688 L 254.824219 220.554688 L 254.824219 198.503906 L 277.222656 198.503906 " fill-opacity="1" fill-rule="nonzero"/><path fill="#f9ad2b" d="M 277.222656 176.457031 L 277.222656 198.503906 L 254.824219 198.503906 L 254.824219 176.457031 L 277.222656 176.457031 " fill-opacity="1" fill-rule="nonzero"/><path fill="#fcca29" d="M 277.222656 154.40625 L 277.222656 176.457031 L 254.824219 176.457031 L 254.824219 154.40625 L 277.222656 154.40625 " fill-opacity="1" fill-rule="nonzero"/><path fill="#76482c" d="M 277.222656 132.300781 L 277.222656 154.40625 L 254.824219 154.40625 L 254.824219 132.300781 L 277.222656 132.300781 " fill-opacity="1" fill-rule="nonzero"/><path fill="#76482c" d="M 277.222656 110.25 L 277.222656 132.300781 L 254.824219 132.300781 L 254.824219 110.25 L 277.222656 110.25 " fill-opacity="1" fill-rule="nonzero"/><path fill="#76482c" d="M 277.222656 88.199219 L 277.222656 110.25 L 254.824219 110.25 L 254.824219 88.199219 L 277.222656 88.199219 " fill-opacity="1" fill-rule="nonzero"/><path fill="#76482c" d="M 277.222656 66.148438 L 277.222656 88.199219 L 254.824219 88.199219 L 254.824219 66.148438 L 277.222656 66.148438 " fill-opacity="1" fill-rule="nonzero"/><path fill="#76482c" d="M 277.222656 44.097656 L 277.222656 66.148438 L 254.824219 66.148438 L 254.824219 44.097656 L 277.222656 44.097656 " fill-opacity="1" fill-rule="nonzero"/><path fill="#bf7648" d="M 277.222656 21.996094 L 277.222656 44.097656 L 254.824219 44.097656 L 254.824219 21.996094 L 277.222656 21.996094 " fill-opacity="1" fill-rule="nonzero"/><path fill="#edce3a" d="M 254.824219 352.972656 L 254.824219 375.023438 L 232.433594 375.023438 L 232.433594 352.972656 L 254.824219 352.972656 " fill-opacity="1" fill-rule="nonzero"/><path fill="#bf7648" d="M 254.824219 330.921875 L 254.824219 352.972656 L 232.433594 352.972656 L 232.433594 330.921875 L 254.824219 330.921875 " fill-opacity="1" fill-rule="nonzero"/><path fill="#bf7648" d="M 254.824219 308.816406 L 254.824219 330.921875 L 232.433594 330.921875 L 232.433594 308.816406 L 254.824219 308.816406 " fill-opacity="1" fill-rule="nonzero"/><path fill="#bf5c46" d="M 254.824219 286.769531 L 254.824219 308.816406 L 232.433594 308.816406 L 232.433594 286.769531 L 254.824219 286.769531 " fill-opacity="1" fill-rule="nonzero"/><path fill="#bf7648" d="M 254.824219 264.710938 L 254.824219 286.769531 L 232.433594 286.769531 L 232.433594 264.710938 L 254.824219 264.710938 " fill-opacity="1" fill-rule="nonzero"/><path fill="#bf7648" d="M 254.824219 242.667969 L 254.824219 264.710938 L 232.433594 264.710938 L 232.433594 242.667969 L 254.824219 242.667969 " fill-opacity="1" fill-rule="nonzero"/><path fill="#edce3a" d="M 254.824219 220.554688 L 254.824219 242.667969 L 232.433594 242.667969 L 232.433594 220.554688 L 254.824219 220.554688 " fill-opacity="1" fill-rule="nonzero"/><path fill="#f9ad2b" d="M 254.824219 198.503906 L 254.824219 220.554688 L 232.433594 220.554688 L 232.433594 198.503906 L 254.824219 198.503906 " fill-opacity="1" fill-rule="nonzero"/><path fill="#f9ad2b" d="M 254.824219 176.457031 L 254.824219 198.503906 L 232.433594 198.503906 L 232.433594 176.457031 L 254.824219 176.457031 " fill-opacity="1" fill-rule="nonzero"/><path fill="#76482c" d="M 254.824219 154.40625 L 254.824219 176.457031 L 232.433594 176.457031 L 232.433594 154.40625 L 254.824219 154.40625 " fill-opacity="1" fill-rule="nonzero"/><path fill="#76482c" d="M 254.824219 132.300781 L 254.824219 154.40625 L 232.433594 154.40625 L 232.433594 132.300781 L 254.824219 132.300781 " fill-opacity="1" fill-rule="nonzero"/><path fill="#76482c" d="M 254.824219 110.25 L 254.824219 132.300781 L 232.433594 132.300781 L 232.433594 110.25 L 254.824219 110.25 " fill-opacity="1" fill-rule="nonzero"/><path fill="#76482c" d="M 254.824219 88.199219 L 254.824219 110.25 L 232.433594 110.25 L 232.433594 88.199219 L 254.824219 88.199219 " fill-opacity="1" fill-rule="nonzero"/><path fill="#76482c" d="M 254.824219 66.148438 L 254.824219 88.199219 L 232.433594 88.199219 L 232.433594 66.148438 L 254.824219 66.148438 " fill-opacity="1" fill-rule="nonzero"/><path fill="#76482c" d="M 254.824219 44.097656 L 254.824219 66.148438 L 232.433594 66.148438 L 232.433594 44.097656 L 254.824219 44.097656 " fill-opacity="1" fill-rule="nonzero"/><path fill="#bf7648" d="M 254.824219 21.996094 L 254.824219 44.097656 L 232.433594 44.097656 L 232.433594 21.996094 L 254.824219 21.996094 " fill-opacity="1" fill-rule="nonzero"/><path fill="#edce3a" d="M 232.433594 352.972656 L 232.433594 375.023438 L 210.035156 375.023438 L 210.035156 352.972656 L 232.433594 352.972656 " fill-opacity="1" fill-rule="nonzero"/><path fill="#bf7648" d="M 232.433594 330.921875 L 232.433594 352.972656 L 210.035156 352.972656 L 210.035156 330.921875 L 232.433594 330.921875 " fill-opacity="1" fill-rule="nonzero"/><path fill="#bf7648" d="M 232.433594 308.816406 L 232.433594 330.921875 L 210.035156 330.921875 L 210.035156 308.816406 L 232.433594 308.816406 " fill-opacity="1" fill-rule="nonzero"/><path fill="#bf5c46" d="M 232.433594 286.769531 L 232.433594 308.816406 L 210.035156 308.816406 L 210.035156 286.769531 L 232.433594 286.769531 " fill-opacity="1" fill-rule="nonzero"/><path fill="#bf7648" d="M 232.433594 264.710938 L 232.433594 286.769531 L 210.035156 286.769531 L 210.035156 264.710938 L 232.433594 264.710938 " fill-opacity="1" fill-rule="nonzero"/><path fill="#edcf7b" d="M 232.433594 242.667969 L 232.433594 264.710938 L 210.035156 264.710938 L 210.035156 242.667969 L 232.433594 242.667969 " fill-opacity="1" fill-rule="nonzero"/><path fill="#edce3a" d="M 232.433594 220.554688 L 232.433594 242.667969 L 210.035156 242.667969 L 210.035156 220.554688 L 232.433594 220.554688 " fill-opacity="1" fill-rule="nonzero"/><path fill="#f9ad2b" d="M 232.433594 198.503906 L 232.433594 220.554688 L 210.035156 220.554688 L 210.035156 198.503906 L 232.433594 198.503906 " fill-opacity="1" fill-rule="nonzero"/><path fill="#fcca29" d="M 232.433594 176.457031 L 232.433594 198.503906 L 210.035156 198.503906 L 210.035156 176.457031 L 232.433594 176.457031 " fill-opacity="1" fill-rule="nonzero"/><path fill="#76482c" d="M 232.433594 154.40625 L 232.433594 176.457031 L 210.035156 176.457031 L 210.035156 154.40625 L 232.433594 154.40625 " fill-opacity="1" fill-rule="nonzero"/><path fill="#76482c" d="M 232.433594 132.300781 L 232.433594 154.40625 L 210.035156 154.40625 L 210.035156 132.300781 L 232.433594 132.300781 " fill-opacity="1" fill-rule="nonzero"/><path fill="#76482c" d="M 232.433594 110.25 L 232.433594 132.300781 L 210.035156 132.300781 L 210.035156 110.25 L 232.433594 110.25 " fill-opacity="1" fill-rule="nonzero"/><path fill="#76482c" d="M 232.433594 88.199219 L 232.433594 110.25 L 210.035156 110.25 L 210.035156 88.199219 L 232.433594 88.199219 " fill-opacity="1" fill-rule="nonzero"/><path fill="#76482c" d="M 232.433594 66.148438 L 232.433594 88.199219 L 210.035156 88.199219 L 210.035156 66.148438 L 232.433594 66.148438 " fill-opacity="1" fill-rule="nonzero"/><path fill="#76482c" d="M 232.433594 44.097656 L 232.433594 66.148438 L 210.035156 66.148438 L 210.035156 44.097656 L 232.433594 44.097656 " fill-opacity="1" fill-rule="nonzero"/><path fill="#bf7648" d="M 232.433594 21.996094 L 232.433594 44.097656 L 210.035156 44.097656 L 210.035156 21.996094 L 232.433594 21.996094 " fill-opacity="1" fill-rule="nonzero"/><path fill="#edce3a" d="M 210.035156 352.972656 L 210.035156 375.023438 L 187.699219 375.023438 L 187.699219 352.972656 L 210.035156 352.972656 " fill-opacity="1" fill-rule="nonzero"/><path fill="#bf7648" d="M 210.035156 330.921875 L 210.035156 352.972656 L 187.699219 352.972656 L 187.699219 330.921875 L 210.035156 330.921875 " fill-opacity="1" fill-rule="nonzero"/><path fill="#bf7648" d="M 210.035156 308.816406 L 210.035156 330.921875 L 187.699219 330.921875 L 187.699219 308.816406 L 210.035156 308.816406 " fill-opacity="1" fill-rule="nonzero"/><path fill="#bf5c46" d="M 210.035156 286.769531 L 210.035156 308.816406 L 187.699219 308.816406 L 187.699219 286.769531 L 210.035156 286.769531 " fill-opacity="1" fill-rule="nonzero"/><path fill="#edcf7b" d="M 210.035156 264.710938 L 210.035156 286.769531 L 187.699219 286.769531 L 187.699219 264.710938 L 210.035156 264.710938 " fill-opacity="1" fill-rule="nonzero"/><path fill="#edcf7b" d="M 210.035156 242.667969 L 210.035156 264.710938 L 187.699219 264.710938 L 187.699219 242.667969 L 210.035156 242.667969 " fill-opacity="1" fill-rule="nonzero"/><path fill="#edce3a" d="M 210.035156 220.554688 L 210.035156 242.667969 L 187.699219 242.667969 L 187.699219 220.554688 L 210.035156 220.554688 " fill-opacity="1" fill-rule="nonzero"/><path fill="#f9ad2b" d="M 210.035156 198.503906 L 210.035156 220.554688 L 187.699219 220.554688 L 187.699219 198.503906 L 210.035156 198.503906 " fill-opacity="1" fill-rule="nonzero"/><path fill="#f9ad2b" d="M 210.035156 176.457031 L 210.035156 198.503906 L 187.699219 198.503906 L 187.699219 176.457031 L 210.035156 176.457031 " fill-opacity="1" fill-rule="nonzero"/><path fill="#fcca29" d="M 210.035156 154.40625 L 210.035156 176.457031 L 187.699219 176.457031 L 187.699219 154.40625 L 210.035156 154.40625 " fill-opacity="1" fill-rule="nonzero"/><path fill="#76482c" d="M 210.035156 132.300781 L 210.035156 154.40625 L 187.699219 154.40625 L 187.699219 132.300781 L 210.035156 132.300781 " fill-opacity="1" fill-rule="nonzero"/><path fill="#76482c" d="M 210.035156 110.25 L 210.035156 132.300781 L 187.699219 132.300781 L 187.699219 110.25 L 210.035156 110.25 " fill-opacity="1" fill-rule="nonzero"/><path fill="#76482c" d="M 210.035156 88.199219 L 210.035156 110.25 L 187.699219 110.25 L 187.699219 88.199219 L 210.035156 88.199219 " fill-opacity="1" fill-rule="nonzero"/><path fill="#76482c" d="M 210.035156 66.148438 L 210.035156 88.199219 L 187.699219 88.199219 L 187.699219 66.148438 L 210.035156 66.148438 " fill-opacity="1" fill-rule="nonzero"/><path fill="#76482c" d="M 210.035156 44.097656 L 210.035156 66.148438 L 187.699219 66.148438 L 187.699219 44.097656 L 210.035156 44.097656 " fill-opacity="1" fill-rule="nonzero"/><path fill="#bf7648" d="M 210.035156 21.996094 L 210.035156 44.097656 L 187.699219 44.097656 L 187.699219 21.996094 L 210.035156 21.996094 " fill-opacity="1" fill-rule="nonzero"/><path fill="#edcf7b" d="M 210.035156 -0.0546875 L 210.035156 21.996094 L 187.699219 21.996094 L 187.699219 -0.0546875 L 210.035156 -0.0546875 " fill-opacity="1" fill-rule="nonzero"/><path fill="#edce3a" d="M 187.699219 352.972656 L 187.699219 375.023438 L 165.300781 375.023438 L 165.300781 352.972656 L 187.699219 352.972656 " fill-opacity="1" fill-rule="nonzero"/><path fill="#bf7648" d="M 187.699219 330.921875 L 187.699219 352.972656 L 165.300781 352.972656 L 165.300781 330.921875 L 187.699219 330.921875 " fill-opacity="1" fill-rule="nonzero"/><path fill="#bf7648" d="M 187.699219 308.816406 L 187.699219 330.921875 L 165.300781 330.921875 L 165.300781 308.816406 L 187.699219 308.816406 " fill-opacity="1" fill-rule="nonzero"/><path fill="#bf5c46" d="M 187.699219 286.769531 L 187.699219 308.816406 L 165.300781 308.816406 L 165.300781 286.769531 L 187.699219 286.769531 " fill-opacity="1" fill-rule="nonzero"/><path fill="#edcf7b" d="M 187.699219 264.710938 L 187.699219 286.769531 L 165.300781 286.769531 L 165.300781 264.710938 L 187.699219 264.710938 " fill-opacity="1" fill-rule="nonzero"/><path fill="#edcf7b" d="M 187.699219 242.667969 L 187.699219 264.710938 L 165.300781 264.710938 L 165.300781 242.667969 L 187.699219 242.667969 " fill-opacity="1" fill-rule="nonzero"/><path fill="#edce3a" d="M 187.699219 220.554688 L 187.699219 242.667969 L 165.300781 242.667969 L 165.300781 220.554688 L 187.699219 220.554688 " fill-opacity="1" fill-rule="nonzero"/><path fill="#f9ad2b" d="M 187.699219 198.503906 L 187.699219 220.554688 L 165.300781 220.554688 L 165.300781 198.503906 L 187.699219 198.503906 " fill-opacity="1" fill-rule="nonzero"/><path fill="#f9ad2b" d="M 187.699219 176.457031 L 187.699219 198.503906 L 165.300781 198.503906 L 165.300781 176.457031 L 187.699219 176.457031 " fill-opacity="1" fill-rule="nonzero"/><path fill="#fcca29" d="M 187.699219 154.40625 L 187.699219 176.457031 L 165.300781 176.457031 L 165.300781 154.40625 L 187.699219 154.40625 " fill-opacity="1" fill-rule="nonzero"/><path fill="#76482c" d="M 187.699219 132.300781 L 187.699219 154.40625 L 165.300781 154.40625 L 165.300781 132.300781 L 187.699219 132.300781 " fill-opacity="1" fill-rule="nonzero"/><path fill="#76482c" d="M 187.699219 110.25 L 187.699219 132.300781 L 165.300781 132.300781 L 165.300781 110.25 L 187.699219 110.25 " fill-opacity="1" fill-rule="nonzero"/><path fill="#76482c" d="M 187.699219 88.199219 L 187.699219 110.25 L 165.300781 110.25 L 165.300781 88.199219 L 187.699219 88.199219 " fill-opacity="1" fill-rule="nonzero"/><path fill="#76482c" d="M 187.699219 66.148438 L 187.699219 88.199219 L 165.300781 88.199219 L 165.300781 66.148438 L 187.699219 66.148438 " fill-opacity="1" fill-rule="nonzero"/><path fill="#76482c" d="M 187.699219 44.097656 L 187.699219 66.148438 L 165.300781 66.148438 L 165.300781 44.097656 L 187.699219 44.097656 " fill-opacity="1" fill-rule="nonzero"/><path fill="#bf7648" d="M 187.699219 21.996094 L 187.699219 44.097656 L 165.300781 44.097656 L 165.300781 21.996094 L 187.699219 21.996094 " fill-opacity="1" fill-rule="nonzero"/><path fill="#edcf7b" d="M 187.699219 -0.0546875 L 187.699219 21.996094 L 165.300781 21.996094 L 165.300781 -0.0546875 L 187.699219 -0.0546875 " fill-opacity="1" fill-rule="nonzero"/><path fill="#edce3a" d="M 165.300781 352.972656 L 165.300781 375.023438 L 142.910156 375.023438 L 142.910156 352.972656 L 165.300781 352.972656 " fill-opacity="1" fill-rule="nonzero"/><path fill="#bf7648" d="M 165.300781 330.921875 L 165.300781 352.972656 L 142.910156 352.972656 L 142.910156 330.921875 L 165.300781 330.921875 " fill-opacity="1" fill-rule="nonzero"/><path fill="#bf7648" d="M 165.300781 308.816406 L 165.300781 330.921875 L 142.910156 330.921875 L 142.910156 308.816406 L 165.300781 308.816406 " fill-opacity="1" fill-rule="nonzero"/><path fill="#bf5c46" d="M 165.300781 286.769531 L 165.300781 308.816406 L 142.910156 308.816406 L 142.910156 286.769531 L 165.300781 286.769531 " fill-opacity="1" fill-rule="nonzero"/><path fill="#bf7648" d="M 165.300781 264.710938 L 165.300781 286.769531 L 142.910156 286.769531 L 142.910156 264.710938 L 165.300781 264.710938 " fill-opacity="1" fill-rule="nonzero"/><path fill="#edcf7b" d="M 165.300781 242.667969 L 165.300781 264.710938 L 142.910156 264.710938 L 142.910156 242.667969 L 165.300781 242.667969 " fill-opacity="1" fill-rule="nonzero"/><path fill="#edce3a" d="M 165.300781 220.554688 L 165.300781 242.667969 L 142.910156 242.667969 L 142.910156 220.554688 L 165.300781 220.554688 " fill-opacity="1" fill-rule="nonzero"/><path fill="#f9ad2b" d="M 165.300781 198.503906 L 165.300781 220.554688 L 142.910156 220.554688 L 142.910156 198.503906 L 165.300781 198.503906 " fill-opacity="1" fill-rule="nonzero"/><path fill="#fcca29" d="M 165.300781 176.457031 L 165.300781 198.503906 L 142.910156 198.503906 L 142.910156 176.457031 L 165.300781 176.457031 " fill-opacity="1" fill-rule="nonzero"/><path fill="#76482c" d="M 165.300781 154.40625 L 165.300781 176.457031 L 142.910156 176.457031 L 142.910156 154.40625 L 165.300781 154.40625 " fill-opacity="1" fill-rule="nonzero"/><path fill="#76482c" d="M 165.300781 132.300781 L 165.300781 154.40625 L 142.910156 154.40625 L 142.910156 132.300781 L 165.300781 132.300781 " fill-opacity="1" fill-rule="nonzero"/><path fill="#76482c" d="M 165.300781 110.25 L 165.300781 132.300781 L 142.910156 132.300781 L 142.910156 110.25 L 165.300781 110.25 " fill-opacity="1" fill-rule="nonzero"/><path fill="#76482c" d="M 165.300781 88.199219 L 165.300781 110.25 L 142.910156 110.25 L 142.910156 88.199219 L 165.300781 88.199219 " fill-opacity="1" fill-rule="nonzero"/><path fill="#76482c" d="M 165.300781 66.148438 L 165.300781 88.199219 L 142.910156 88.199219 L 142.910156 66.148438 L 165.300781 66.148438 " fill-opacity="1" fill-rule="nonzero"/><path fill="#76482c" d="M 165.300781 44.097656 L 165.300781 66.148438 L 142.910156 66.148438 L 142.910156 44.097656 L 165.300781 44.097656 " fill-opacity="1" fill-rule="nonzero"/><path fill="#bf7648" d="M 165.300781 21.996094 L 165.300781 44.097656 L 142.910156 44.097656 L 142.910156 21.996094 L 165.300781 21.996094 " fill-opacity="1" fill-rule="nonzero"/><path fill="#edcf7b" d="M 165.300781 -0.0546875 L 165.300781 21.996094 L 142.910156 21.996094 L 142.910156 -0.0546875 L 165.300781 -0.0546875 " fill-opacity="1" fill-rule="nonzero"/><path fill="#edce3a" d="M 142.910156 352.972656 L 142.910156 375.023438 L 120.511719 375.023438 L 120.511719 352.972656 L 142.910156 352.972656 " fill-opacity="1" fill-rule="nonzero"/><path fill="#bf7648" d="M 142.910156 330.921875 L 142.910156 352.972656 L 120.511719 352.972656 L 120.511719 330.921875 L 142.910156 330.921875 " fill-opacity="1" fill-rule="nonzero"/><path fill="#bf7648" d="M 142.910156 308.816406 L 142.910156 330.921875 L 120.511719 330.921875 L 120.511719 308.816406 L 142.910156 308.816406 " fill-opacity="1" fill-rule="nonzero"/><path fill="#bf5c46" d="M 142.910156 286.769531 L 142.910156 308.816406 L 120.511719 308.816406 L 120.511719 286.769531 L 142.910156 286.769531 " fill-opacity="1" fill-rule="nonzero"/><path fill="#bf7648" d="M 142.910156 264.710938 L 142.910156 286.769531 L 120.511719 286.769531 L 120.511719 264.710938 L 142.910156 264.710938 " fill-opacity="1" fill-rule="nonzero"/><path fill="#bf7648" d="M 142.910156 242.667969 L 142.910156 264.710938 L 120.511719 264.710938 L 120.511719 242.667969 L 142.910156 242.667969 " fill-opacity="1" fill-rule="nonzero"/><path fill="#edce3a" d="M 142.910156 220.554688 L 142.910156 242.667969 L 120.511719 242.667969 L 120.511719 220.554688 L 142.910156 220.554688 " fill-opacity="1" fill-rule="nonzero"/><path fill="#f9ad2b" d="M 142.910156 198.503906 L 142.910156 220.554688 L 120.511719 220.554688 L 120.511719 198.503906 L 142.910156 198.503906 " fill-opacity="1" fill-rule="nonzero"/><path fill="#fcca29" d="M 142.910156 176.457031 L 142.910156 198.503906 L 120.511719 198.503906 L 120.511719 176.457031 L 142.910156 176.457031 " fill-opacity="1" fill-rule="nonzero"/><path fill="#76482c" d="M 142.910156 154.40625 L 142.910156 176.457031 L 120.511719 176.457031 L 120.511719 154.40625 L 142.910156 154.40625 " fill-opacity="1" fill-rule="nonzero"/><path fill="#ffffff" d="M 142.910156 132.300781 L 142.910156 154.40625 L 120.511719 154.40625 L 120.511719 132.300781 L 142.910156 132.300781 " fill-opacity="1" fill-rule="nonzero"/><path fill="#76482c" d="M 142.910156 110.25 L 142.910156 132.300781 L 120.511719 132.300781 L 120.511719 110.25 L 142.910156 110.25 " fill-opacity="1" fill-rule="nonzero"/><path fill="#76482c" d="M 142.910156 88.199219 L 142.910156 110.25 L 120.511719 110.25 L 120.511719 88.199219 L 142.910156 88.199219 " fill-opacity="1" fill-rule="nonzero"/><path fill="#76482c" d="M 142.910156 66.148438 L 142.910156 88.199219 L 120.511719 88.199219 L 120.511719 66.148438 L 142.910156 66.148438 " fill-opacity="1" fill-rule="nonzero"/><path fill="#442817" d="M 142.910156 44.097656 L 142.910156 66.148438 L 120.511719 66.148438 L 120.511719 44.097656 L 142.910156 44.097656 " fill-opacity="1" fill-rule="nonzero"/><path fill="#bf7648" d="M 142.910156 21.996094 L 142.910156 44.097656 L 120.511719 44.097656 L 120.511719 21.996094 L 142.910156 21.996094 " fill-opacity="1" fill-rule="nonzero"/><path fill="#edce3a" d="M 120.511719 352.972656 L 120.511719 375.023438 L 98.121094 375.023438 L 98.121094 352.972656 L 120.511719 352.972656 " fill-opacity="1" fill-rule="nonzero"/><path fill="#bf7648" d="M 120.511719 330.921875 L 120.511719 352.972656 L 98.121094 352.972656 L 98.121094 330.921875 L 120.511719 330.921875 " fill-opacity="1" fill-rule="nonzero"/><path fill="#bf7648" d="M 120.511719 308.816406 L 120.511719 330.921875 L 98.121094 330.921875 L 98.121094 308.816406 L 120.511719 308.816406 " fill-opacity="1" fill-rule="nonzero"/><path fill="#bf5c46" d="M 120.511719 286.769531 L 120.511719 308.816406 L 98.121094 308.816406 L 98.121094 286.769531 L 120.511719 286.769531 " fill-opacity="1" fill-rule="nonzero"/><path fill="#bf7648" d="M 120.511719 264.710938 L 120.511719 286.769531 L 98.121094 286.769531 L 98.121094 264.710938 L 120.511719 264.710938 " fill-opacity="1" fill-rule="nonzero"/><path fill="#bf7648" d="M 120.511719 242.667969 L 120.511719 264.710938 L 98.121094 264.710938 L 98.121094 242.667969 L 120.511719 242.667969 " fill-opacity="1" fill-rule="nonzero"/><path fill="#edce3a" d="M 120.511719 220.554688 L 120.511719 242.667969 L 98.121094 242.667969 L 98.121094 220.554688 L 120.511719 220.554688 " fill-opacity="1" fill-rule="nonzero"/><path fill="#f9ad2b" d="M 120.511719 198.503906 L 120.511719 220.554688 L 98.121094 220.554688 L 98.121094 198.503906 L 120.511719 198.503906 " fill-opacity="1" fill-rule="nonzero"/><path fill="#fcca29" d="M 120.511719 176.457031 L 120.511719 198.503906 L 98.121094 198.503906 L 98.121094 176.457031 L 120.511719 176.457031 " fill-opacity="1" fill-rule="nonzero"/><path fill="#ffffff" d="M 120.511719 154.40625 L 120.511719 176.457031 L 98.121094 176.457031 L 98.121094 154.40625 L 120.511719 154.40625 " fill-opacity="1" fill-rule="nonzero"/><path fill="#ffffff" d="M 120.511719 132.300781 L 120.511719 154.40625 L 98.121094 154.40625 L 98.121094 132.300781 L 120.511719 132.300781 " fill-opacity="1" fill-rule="nonzero"/><path fill="#ffffff" d="M 120.511719 110.25 L 120.511719 132.300781 L 98.121094 132.300781 L 98.121094 110.25 L 120.511719 110.25 " fill-opacity="1" fill-rule="nonzero"/><path fill="#76482c" d="M 120.511719 88.199219 L 120.511719 110.25 L 98.121094 110.25 L 98.121094 88.199219 L 120.511719 88.199219 " fill-opacity="1" fill-rule="nonzero"/><path fill="#442817" d="M 120.511719 66.148438 L 120.511719 88.199219 L 98.121094 88.199219 L 98.121094 66.148438 L 120.511719 66.148438 " fill-opacity="1" fill-rule="nonzero"/><path fill="#442817" d="M 120.511719 44.097656 L 120.511719 66.148438 L 98.121094 66.148438 L 98.121094 44.097656 L 120.511719 44.097656 " fill-opacity="1" fill-rule="nonzero"/><path fill="#9c603a" d="M 120.511719 21.996094 L 120.511719 44.097656 L 98.121094 44.097656 L 98.121094 21.996094 L 120.511719 21.996094 " fill-opacity="1" fill-rule="nonzero"/><path fill="#edce3a" d="M 98.121094 352.972656 L 98.121094 375.023438 L 75.722656 375.023438 L 75.722656 352.972656 L 98.121094 352.972656 " fill-opacity="1" fill-rule="nonzero"/><path fill="#bf7648" d="M 98.121094 330.921875 L 98.121094 352.972656 L 75.722656 352.972656 L 75.722656 330.921875 L 98.121094 330.921875 " fill-opacity="1" fill-rule="nonzero"/><path fill="#bf7648" d="M 98.121094 308.816406 L 98.121094 330.921875 L 75.722656 330.921875 L 75.722656 308.816406 L 98.121094 308.816406 " fill-opacity="1" fill-rule="nonzero"/><path fill="#bf5c46" d="M 98.121094 286.769531 L 98.121094 308.816406 L 75.722656 308.816406 L 75.722656 286.769531 L 98.121094 286.769531 " fill-opacity="1" fill-rule="nonzero"/><path fill="#bf7648" d="M 98.121094 264.710938 L 98.121094 286.769531 L 75.722656 286.769531 L 75.722656 264.710938 L 98.121094 264.710938 " fill-opacity="1" fill-rule="nonzero"/><path fill="#bf7648" d="M 98.121094 242.667969 L 98.121094 264.710938 L 75.722656 264.710938 L 75.722656 242.667969 L 98.121094 242.667969 " fill-opacity="1" fill-rule="nonzero"/><path fill="#edce3a" d="M 98.121094 220.554688 L 98.121094 242.667969 L 75.722656 242.667969 L 75.722656 220.554688 L 98.121094 220.554688 " fill-opacity="1" fill-rule="nonzero"/><path fill="#f9ad2b" d="M 98.121094 198.503906 L 98.121094 220.554688 L 75.722656 220.554688 L 75.722656 198.503906 L 98.121094 198.503906 " fill-opacity="1" fill-rule="nonzero"/><path fill="#f9ad2b" d="M 98.121094 176.457031 L 98.121094 198.503906 L 75.722656 198.503906 L 75.722656 176.457031 L 98.121094 176.457031 " fill-opacity="1" fill-rule="nonzero"/><path fill="#fcca29" d="M 98.121094 154.40625 L 98.121094 176.457031 L 75.722656 176.457031 L 75.722656 154.40625 L 98.121094 154.40625 " fill-opacity="1" fill-rule="nonzero"/><path fill="#ffffff" d="M 98.121094 132.300781 L 98.121094 154.40625 L 75.722656 154.40625 L 75.722656 132.300781 L 98.121094 132.300781 " fill-opacity="1" fill-rule="nonzero"/><path fill="#76482c" d="M 98.121094 110.25 L 98.121094 132.300781 L 75.722656 132.300781 L 75.722656 110.25 L 98.121094 110.25 " fill-opacity="1" fill-rule="nonzero"/><path fill="#442817" d="M 98.121094 88.199219 L 98.121094 110.25 L 75.722656 110.25 L 75.722656 88.199219 L 98.121094 88.199219 " fill-opacity="1" fill-rule="nonzero"/><path fill="#442817" d="M 98.121094 66.148438 L 98.121094 88.199219 L 75.722656 88.199219 L 75.722656 66.148438 L 98.121094 66.148438 " fill-opacity="1" fill-rule="nonzero"/><path fill="#9c603a" d="M 98.121094 44.097656 L 98.121094 66.148438 L 75.722656 66.148438 L 75.722656 44.097656 L 98.121094 44.097656 " fill-opacity="1" fill-rule="nonzero"/><path fill="#9c603a" d="M 98.121094 21.996094 L 98.121094 44.097656 L 75.722656 44.097656 L 75.722656 21.996094 L 98.121094 21.996094 " fill-opacity="1" fill-rule="nonzero"/><path fill="#edce3a" d="M 75.722656 352.972656 L 75.722656 375.023438 L 53.332031 375.023438 L 53.332031 352.972656 L 75.722656 352.972656 " fill-opacity="1" fill-rule="nonzero"/><path fill="#bf7648" d="M 75.722656 330.921875 L 75.722656 352.972656 L 53.332031 352.972656 L 53.332031 330.921875 L 75.722656 330.921875 " fill-opacity="1" fill-rule="nonzero"/><path fill="#bf7648" d="M 75.722656 308.816406 L 75.722656 330.921875 L 53.332031 330.921875 L 53.332031 308.816406 L 75.722656 308.816406 " fill-opacity="1" fill-rule="nonzero"/><path fill="#bf5c46" d="M 75.722656 286.769531 L 75.722656 308.816406 L 53.332031 308.816406 L 53.332031 286.769531 L 75.722656 286.769531 " fill-opacity="1" fill-rule="nonzero"/><path fill="#bf7648" d="M 75.722656 264.710938 L 75.722656 286.769531 L 53.332031 286.769531 L 53.332031 264.710938 L 75.722656 264.710938 " fill-opacity="1" fill-rule="nonzero"/><path fill="#bf7648" d="M 75.722656 242.667969 L 75.722656 264.710938 L 53.332031 264.710938 L 53.332031 242.667969 L 75.722656 242.667969 " fill-opacity="1" fill-rule="nonzero"/><path fill="#edce3a" d="M 75.722656 220.554688 L 75.722656 242.667969 L 53.332031 242.667969 L 53.332031 220.554688 L 75.722656 220.554688 " fill-opacity="1" fill-rule="nonzero"/><path fill="#f9ad2b" d="M 75.722656 198.503906 L 75.722656 220.554688 L 53.332031 220.554688 L 53.332031 198.503906 L 75.722656 198.503906 " fill-opacity="1" fill-rule="nonzero"/><path fill="#fcca29" d="M 75.722656 176.457031 L 75.722656 198.503906 L 53.332031 198.503906 L 53.332031 176.457031 L 75.722656 176.457031 " fill-opacity="1" fill-rule="nonzero"/><path fill="#fcca29" d="M 75.722656 154.40625 L 75.722656 176.457031 L 53.332031 176.457031 L 53.332031 154.40625 L 75.722656 154.40625 " fill-opacity="1" fill-rule="nonzero"/><path fill="#76482c" d="M 75.722656 132.300781 L 75.722656 154.40625 L 53.332031 154.40625 L 53.332031 132.300781 L 75.722656 132.300781 " fill-opacity="1" fill-rule="nonzero"/><path fill="#442817" d="M 75.722656 110.25 L 75.722656 132.300781 L 53.332031 132.300781 L 53.332031 110.25 L 75.722656 110.25 " fill-opacity="1" fill-rule="nonzero"/><path fill="#442817" d="M 75.722656 88.199219 L 75.722656 110.25 L 53.332031 110.25 L 53.332031 88.199219 L 75.722656 88.199219 " fill-opacity="1" fill-rule="nonzero"/><path fill="#9c603a" d="M 75.722656 66.148438 L 75.722656 88.199219 L 53.332031 88.199219 L 53.332031 66.148438 L 75.722656 66.148438 " fill-opacity="1" fill-rule="nonzero"/><path fill="#9c603a" d="M 75.722656 44.097656 L 75.722656 66.148438 L 53.332031 66.148438 L 53.332031 44.097656 L 75.722656 44.097656 " fill-opacity="1" fill-rule="nonzero"/><path fill="#edce3a" d="M 53.332031 352.972656 L 53.332031 375.023438 L 30.988281 375.023438 L 30.988281 352.972656 L 53.332031 352.972656 " fill-opacity="1" fill-rule="nonzero"/><path fill="#edce3a" d="M 53.332031 330.921875 L 53.332031 352.972656 L 30.988281 352.972656 L 30.988281 330.921875 L 53.332031 330.921875 " fill-opacity="1" fill-rule="nonzero"/><path fill="#bf7648" d="M 53.332031 308.816406 L 53.332031 330.921875 L 30.988281 330.921875 L 30.988281 308.816406 L 53.332031 308.816406 " fill-opacity="1" fill-rule="nonzero"/><path fill="#bf5c46" d="M 53.332031 286.769531 L 53.332031 308.816406 L 30.988281 308.816406 L 30.988281 286.769531 L 53.332031 286.769531 " fill-opacity="1" fill-rule="nonzero"/><path fill="#bf7648" d="M 53.332031 264.710938 L 53.332031 286.769531 L 30.988281 286.769531 L 30.988281 264.710938 L 53.332031 264.710938 " fill-opacity="1" fill-rule="nonzero"/><path fill="#bf7648" d="M 53.332031 242.667969 L 53.332031 264.710938 L 30.988281 264.710938 L 30.988281 242.667969 L 53.332031 242.667969 " fill-opacity="1" fill-rule="nonzero"/><path fill="#edce3a" d="M 53.332031 220.554688 L 53.332031 242.667969 L 30.988281 242.667969 L 30.988281 220.554688 L 53.332031 220.554688 " fill-opacity="1" fill-rule="nonzero"/><path fill="#f9ad2b" d="M 53.332031 198.503906 L 53.332031 220.554688 L 30.988281 220.554688 L 30.988281 198.503906 L 53.332031 198.503906 " fill-opacity="1" fill-rule="nonzero"/><path fill="#fcca29" d="M 53.332031 176.457031 L 53.332031 198.503906 L 30.988281 198.503906 L 30.988281 176.457031 L 53.332031 176.457031 " fill-opacity="1" fill-rule="nonzero"/><path fill="#442817" d="M 53.332031 154.40625 L 53.332031 176.457031 L 30.988281 176.457031 L 30.988281 154.40625 L 53.332031 154.40625 " fill-opacity="1" fill-rule="nonzero"/><path fill="#442817" d="M 53.332031 132.300781 L 53.332031 154.40625 L 30.988281 154.40625 L 30.988281 132.300781 L 53.332031 132.300781 " fill-opacity="1" fill-rule="nonzero"/><path fill="#442817" d="M 53.332031 110.25 L 53.332031 132.300781 L 30.988281 132.300781 L 30.988281 110.25 L 53.332031 110.25 " fill-opacity="1" fill-rule="nonzero"/><path fill="#9c603a" d="M 53.332031 88.199219 L 53.332031 110.25 L 30.988281 110.25 L 30.988281 88.199219 L 53.332031 88.199219 " fill-opacity="1" fill-rule="nonzero"/><path fill="#9c603a" d="M 53.332031 66.148438 L 53.332031 88.199219 L 30.988281 88.199219 L 30.988281 66.148438 L 53.332031 66.148438 " fill-opacity="1" fill-rule="nonzero"/><g clip-path="url(#588a9eed00)"><path fill="#edce3a" d="M 30.988281 330.921875 L 30.988281 352.972656 L 8.597656 352.972656 L 8.597656 330.921875 L 30.988281 330.921875 " fill-opacity="1" fill-rule="nonzero"/></g><g clip-path="url(#d820230a22)"><path fill="#edce3a" d="M 30.988281 308.816406 L 30.988281 330.921875 L 8.597656 330.921875 L 8.597656 308.816406 L 30.988281 308.816406 " fill-opacity="1" fill-rule="nonzero"/></g><g clip-path="url(#e4c80795f4)"><path fill="#edce3a" d="M 30.988281 286.769531 L 30.988281 308.816406 L 8.597656 308.816406 L 8.597656 286.769531 L 30.988281 286.769531 " fill-opacity="1" fill-rule="nonzero"/></g><g clip-path="url(#3205259395)"><path fill="#edce3a" d="M 30.988281 264.710938 L 30.988281 286.769531 L 8.597656 286.769531 L 8.597656 264.710938 L 30.988281 264.710938 " fill-opacity="1" fill-rule="nonzero"/></g><g clip-path="url(#d7db0f8796)"><path fill="#edce3a" d="M 30.988281 242.667969 L 30.988281 264.710938 L 8.597656 264.710938 L 8.597656 242.667969 L 30.988281 242.667969 " fill-opacity="1" fill-rule="nonzero"/></g><g clip-path="url(#1846121665)"><path fill="#edce3a" d="M 30.988281 220.554688 L 30.988281 242.667969 L 8.597656 242.667969 L 8.597656 220.554688 L 30.988281 220.554688 " fill-opacity="1" fill-rule="nonzero"/></g><g clip-path="url(#f42f4fc0ed)"><path fill="#f9ad2b" d="M 30.988281 198.503906 L 30.988281 220.554688 L 8.597656 220.554688 L 8.597656 198.503906 L 30.988281 198.503906 " fill-opacity="1" fill-rule="nonzero"/></g><g clip-path="url(#72ecf9f637)"><path fill="#9c603a" d="M 30.988281 176.457031 L 30.988281 198.503906 L 8.597656 198.503906 L 8.597656 176.457031 L 30.988281 176.457031 " fill-opacity="1" fill-rule="nonzero"/></g><g clip-path="url(#2cb601c068)"><path fill="#9c603a" d="M 30.988281 154.40625 L 30.988281 176.457031 L 8.597656 176.457031 L 8.597656 154.40625 L 30.988281 154.40625 " fill-opacity="1" fill-rule="nonzero"/></g><g clip-path="url(#9d16053647)"><path fill="#9c603a" d="M 30.988281 132.300781 L 30.988281 154.40625 L 8.597656 154.40625 L 8.597656 132.300781 L 30.988281 132.300781 " fill-opacity="1" fill-rule="nonzero"/></g><g clip-path="url(#a4257cb531)"><path fill="#9c603a" d="M 30.988281 110.25 L 30.988281 132.300781 L 8.597656 132.300781 L 8.597656 110.25 L 30.988281 110.25 " fill-opacity="1" fill-rule="nonzero"/></g><g clip-path="url(#20c8d0ef8b)"><path fill="#9c603a" d="M 30.988281 88.199219 L 30.988281 110.25 L 8.597656 110.25 L 8.597656 88.199219 L 30.988281 88.199219 " fill-opacity="1" fill-rule="nonzero"/></g></svg>