<svg xmlns="http://www.w3.org/2000/svg" xmlns:xlink="http://www.w3.org/1999/xlink" width="500" zoomAndPan="magnify" viewBox="0 0 375 374.999991" height="500" preserveAspectRatio="xMidYMid meet" version="1.0"><defs><clipPath id="984f1ed09c"><path d="M 11.972656 11.972656 L 362.972656 11.972656 L 362.972656 362.972656 L 11.972656 362.972656 Z M 11.972656 11.972656 " clip-rule="nonzero"/></clipPath><clipPath id="0af8289f41"><path d="M 158 11.972656 L 217 11.972656 L 217 42 L 158 42 Z M 158 11.972656 " clip-rule="nonzero"/></clipPath><clipPath id="195022cbc1"><path d="M 333 158 L 362.972656 158 L 362.972656 217 L 333 217 Z M 333 158 " clip-rule="nonzero"/></clipPath><clipPath id="789bfd96b7"><path d="M 11.972656 158 L 42 158 L 42 217 L 11.972656 217 Z M 11.972656 158 " clip-rule="nonzero"/></clipPath><clipPath id="c5638f53b4"><path d="M 158 333 L 217 333 L 217 362.972656 L 158 362.972656 Z M 158 333 " clip-rule="nonzero"/></clipPath></defs><g clip-path="url(#984f1ed09c)"><path fill="#ffd524" d="M 333.722656 158.222656 L 333.722656 99.722656 L 304.472656 99.722656 L 304.472656 70.472656 L 275.222656 70.472656 L 275.222656 41.222656 L 216.722656 41.222656 L 216.722656 11.972656 L 158.222656 11.972656 L 158.222656 41.222656 L 99.722656 41.222656 L 99.722656 70.472656 L 70.472656 70.472656 L 70.472656 99.722656 L 41.222656 99.722656 L 41.222656 158.222656 L 11.972656 158.222656 L 11.972656 216.722656 L 41.222656 216.722656 L 41.222656 275.222656 L 70.472656 275.222656 L 70.472656 304.472656 L 99.722656 304.472656 L 99.722656 333.722656 L 158.222656 333.722656 L 158.222656 362.972656 L 216.722656 362.972656 L 216.722656 333.722656 L 275.222656 333.722656 L 275.222656 304.472656 L 304.472656 304.472656 L 304.472656 275.222656 L 333.722656 275.222656 L 333.722656 216.722656 L 362.972656 216.722656 L 362.972656 158.222656 Z M 333.722656 158.222656 " fill-opacity="1" fill-rule="nonzero"/><path fill="#fdad16" d="M 333.722656 158.222656 L 333.722656 99.722656 L 304.472656 99.722656 L 304.472656 70.472656 L 275.222656 70.472656 L 275.222656 41.222656 L 216.722656 41.222656 L 216.722656 11.972656 L 158.222656 11.972656 L 158.222656 41.222656 L 99.722656 41.222656 L 99.722656 70.472656 L 70.472656 70.472656 L 70.472656 99.722656 L 41.222656 99.722656 L 41.222656 158.222656 L 11.972656 158.222656 L 11.972656 216.722656 L 41.222656 216.722656 L 41.222656 275.222656 L 70.472656 275.222656 L 70.472656 304.472656 L 99.722656 304.472656 L 99.722656 333.722656 L 158.222656 333.722656 L 158.222656 362.972656 L 216.722656 362.972656 L 216.722656 333.722656 L 275.222656 333.722656 L 275.222656 304.472656 L 304.472656 304.472656 L 304.472656 275.222656 L 333.722656 275.222656 L 333.722656 216.722656 L 362.972656 216.722656 L 362.972656 158.222656 Z M 333.722656 158.222656 " fill-opacity="1" fill-rule="nonzero"/></g><path fill="#ffe24c" d="M 70.472656 70.472656 L 99.722656 70.472656 L 99.722656 99.722656 L 70.472656 99.722656 Z M 70.472656 70.472656 " fill-opacity="1" fill-rule="nonzero"/><path fill="#ffe24c" d="M 99.722656 41.222656 L 158.222656 41.222656 L 158.222656 70.472656 L 99.722656 70.472656 Z M 99.722656 41.222656 " fill-opacity="1" fill-rule="nonzero"/><g clip-path="url(#0af8289f41)"><path fill="#ffe24c" d="M 158.222656 11.972656 L 216.722656 11.972656 L 216.722656 41.222656 L 158.222656 41.222656 Z M 158.222656 11.972656 " fill-opacity="1" fill-rule="nonzero"/></g><path fill="#ffe24c" d="M 216.722656 41.222656 L 275.222656 41.222656 L 275.222656 70.472656 L 216.722656 70.472656 Z M 216.722656 41.222656 " fill-opacity="1" fill-rule="nonzero"/><path fill="#ffe24c" d="M 275.222656 70.472656 L 304.472656 70.472656 L 304.472656 99.722656 L 275.222656 99.722656 Z M 275.222656 70.472656 " fill-opacity="1" fill-rule="nonzero"/><path fill="#ffe24c" d="M 304.472656 99.722656 L 333.722656 99.722656 L 333.722656 158.222656 L 304.472656 158.222656 Z M 304.472656 99.722656 " fill-opacity="1" fill-rule="nonzero"/><g clip-path="url(#195022cbc1)"><path fill="#ffe24c" d="M 333.722656 158.222656 L 362.972656 158.222656 L 362.972656 216.722656 L 333.722656 216.722656 Z M 333.722656 158.222656 " fill-opacity="1" fill-rule="nonzero"/></g><path fill="#ffe24c" d="M 304.472656 216.722656 L 333.722656 216.722656 L 333.722656 275.222656 L 304.472656 275.222656 Z M 304.472656 216.722656 " fill-opacity="1" fill-rule="nonzero"/><path fill="#ffe24c" d="M 275.222656 275.222656 L 304.472656 275.222656 L 304.472656 304.472656 L 275.222656 304.472656 Z M 275.222656 275.222656 " fill-opacity="1" fill-rule="nonzero"/><path fill="#ffe24c" d="M 70.472656 128.972656 L 70.472656 245.972656 L 99.722656 245.972656 L 99.722656 275.222656 L 128.972656 275.222656 L 128.972656 216.722656 L 99.722656 216.722656 L 99.722656 158.222656 L 128.972656 158.222656 L 128.972656 99.722656 L 99.722656 99.722656 L 99.722656 128.972656 Z M 70.472656 128.972656 " fill-opacity="1" fill-rule="nonzero"/><path fill="#ffe24c" d="M 128.972656 275.222656 L 245.972656 275.222656 L 245.972656 304.472656 L 128.972656 304.472656 Z M 128.972656 275.222656 " fill-opacity="1" fill-rule="nonzero"/><g clip-path="url(#789bfd96b7)"><path fill="#da531f" d="M 11.972656 158.222656 L 41.222656 158.222656 L 41.222656 216.722656 L 11.972656 216.722656 Z M 11.972656 158.222656 " fill-opacity="1" fill-rule="nonzero"/></g><path fill="#da531f" d="M 41.222656 216.722656 L 70.472656 216.722656 L 70.472656 275.222656 L 41.222656 275.222656 Z M 41.222656 216.722656 " fill-opacity="1" fill-rule="nonzero"/><path fill="#da531f" d="M 70.472656 275.222656 L 99.722656 275.222656 L 99.722656 304.472656 L 70.472656 304.472656 Z M 70.472656 275.222656 " fill-opacity="1" fill-rule="nonzero"/><path fill="#da531f" d="M 99.722656 304.472656 L 158.222656 304.472656 L 158.222656 333.722656 L 99.722656 333.722656 Z M 99.722656 304.472656 " fill-opacity="1" fill-rule="nonzero"/><g clip-path="url(#c5638f53b4)"><path fill="#da531f" d="M 158.222656 333.722656 L 216.722656 333.722656 L 216.722656 362.972656 L 158.222656 362.972656 Z M 158.222656 333.722656 " fill-opacity="1" fill-rule="nonzero"/></g><path fill="#da531f" d="M 216.722656 304.472656 L 275.222656 304.472656 L 275.222656 333.722656 L 216.722656 333.722656 Z M 216.722656 304.472656 " fill-opacity="1" fill-rule="nonzero"/><path fill="#da531f" d="M 41.222656 99.722656 L 70.472656 99.722656 L 70.472656 158.222656 L 41.222656 158.222656 Z M 41.222656 99.722656 " fill-opacity="1" fill-rule="nonzero"/><path fill="#da531f" d="M 128.972656 70.472656 L 245.972656 70.472656 L 245.972656 99.722656 L 128.972656 99.722656 Z M 128.972656 70.472656 " fill-opacity="1" fill-rule="nonzero"/><path fill="#da531f" d="M 275.222656 128.972656 L 275.222656 99.722656 L 245.972656 99.722656 L 245.972656 158.222656 L 275.222656 158.222656 L 275.222656 216.722656 L 245.972656 216.722656 L 245.972656 275.222656 L 275.222656 275.222656 L 275.222656 245.972656 L 304.472656 245.972656 L 304.472656 128.972656 Z M 275.222656 128.972656 " fill-opacity="1" fill-rule="nonzero"/><path fill="#ef7d30" d="M 128.972656 158.222656 L 158.222656 158.222656 L 158.222656 216.722656 L 128.972656 216.722656 Z M 128.972656 158.222656 " fill-opacity="1" fill-rule="nonzero"/><path fill="#ef7d30" d="M 158.222656 216.722656 L 216.722656 216.722656 L 216.722656 245.972656 L 158.222656 245.972656 Z M 158.222656 216.722656 " fill-opacity="1" fill-rule="nonzero"/><path fill="#ffd524" d="M 158.222656 128.972656 L 216.722656 128.972656 L 216.722656 158.222656 L 158.222656 158.222656 Z M 158.222656 128.972656 " fill-opacity="1" fill-rule="nonzero"/><path fill="#ffd524" d="M 216.722656 158.222656 L 245.972656 158.222656 L 245.972656 216.722656 L 216.722656 216.722656 Z M 216.722656 158.222656 " fill-opacity="1" fill-rule="nonzero"/></svg>