<svg xmlns="http://www.w3.org/2000/svg" xmlns:xlink="http://www.w3.org/1999/xlink" width="500" zoomAndPan="magnify" viewBox="0 0 375 374.999991" height="500" preserveAspectRatio="xMidYMid meet" version="1.0"><path fill="#e53225" d="M 238.019531 157.753906 C 242.808594 181.476562 232.257812 219.566406 216.835938 251.59375 C 177.09375 334.136719 269.003906 374.996094 328.285156 323.433594 C 366.082031 290.582031 388.910156 241.34375 388.910156 187.3125 C 388.910156 114.574219 346.546875 51.789062 285.171875 22.15625 C 325.441406 54.707031 349.691406 95.566406 347.667969 150.121094 C 337.492188 139.34375 324.765625 132.085938 309.125 128.867188 C 355.078125 182.972656 344.898438 244.5625 318.929688 258.855469 C 297.222656 270.828125 271.25 256.683594 277.464844 215.375 C 289.960938 221.511719 297.074219 232.585938 301.265625 246.28125 C 316.085938 199.210938 305.082031 164.863281 269.230469 142.785156 C 282.027344 140.992188 293.480469 144.65625 303.210938 154.984375 C 296.175781 120.859375 278.8125 94.820312 233.152344 90.925781 C 238.691406 84.492188 246.101562 80.226562 255.308594 78.128906 C 246.476562 74.164062 236.820312 71.621094 225.96875 71.097656 C 213.019531 77.832031 201.492188 86.136719 191.164062 95.714844 C 211.671875 64.210938 237.496094 36 267.808594 10.628906 C 210.402344 35.699219 153.144531 72.890625 106.4375 117.492188 C 109.058594 156.78125 79.195312 177.210938 80.242188 146.453125 C 49.332031 191.054688 61.230469 222.558594 121.707031 211.035156 C 107.785156 203.925781 116.167969 194.046875 127.917969 195.992188 C 137.574219 197.566406 153.964844 198.386719 164.445312 189.707031 C 119.3125 182.375 172.378906 155.882812 223.425781 166.058594 C 219.15625 152.664062 209.503906 142.5625 196.253906 136.949219 C 217.886719 130.289062 234.128906 138.894531 238.019531 157.753906 Z M 300.816406 322.761719 C 260.324219 321.863281 240.339844 286.691406 242.660156 241.417969 C 221.476562 301.734375 241.460938 339.074219 300.816406 322.761719 Z M 126.046875 131.636719 C 124.253906 137.023438 121.257812 141.738281 117.964844 146.230469 C 120.210938 139.71875 121.78125 132.910156 121.78125 125.648438 L 140.34375 110.382812 L 133.308594 129.242188 Z M 144.011719 248.75 C 130.464844 242.539062 124.703125 233.933594 125.597656 223.234375 C 155.761719 245.457031 206.285156 207.519531 175.222656 178.484375 C 212.195312 171.671875 219.683594 200.632812 205.386719 223.15625 C 140.570312 325.230469 197.902344 369.234375 247.824219 368.261719 C 232.929688 372.152344 217.210938 374.246094 201.121094 374.246094 C 144.460938 374.246094 93.789062 348.578125 60.183594 308.167969 C 81.964844 319.167969 99.628906 315.652344 115.421875 305.476562 C -1.789062 276.140625 -13.839844 150.195312 71.710938 56.503906 C 13.929688 137.398438 35.632812 266.859375 144.011719 248.75 Z M 196.105469 0.00390625 C 188.769531 12.425781 182.257812 25.296875 178.367188 39.667969 L 192.660156 40.414062 C 173.128906 50.816406 154.789062 63.386719 137.5 77.980469 C 150.523438 50.066406 168.785156 23.726562 196.105469 0.00390625 Z M 196.105469 0.00390625 " fill-opacity="1" fill-rule="evenodd"/></svg>