<svg xmlns="http://www.w3.org/2000/svg" xmlns:xlink="http://www.w3.org/1999/xlink" width="500" zoomAndPan="magnify" viewBox="0 0 375 374.999991" height="500" preserveAspectRatio="xMidYMid meet" version="1.0"><defs><clipPath id="2e5c224090"><path d="M 0 14.316406 L 375 14.316406 L 375 360.816406 L 0 360.816406 Z M 0 14.316406 " clip-rule="nonzero"/></clipPath><clipPath id="0d51f1fe2b"><path d="M 57 14.316406 L 87 14.316406 L 87 44 L 57 44 Z M 57 14.316406 " clip-rule="nonzero"/></clipPath><clipPath id="581f618309"><path d="M 173 331 L 202 331 L 202 360.816406 L 173 360.816406 Z M 173 331 " clip-rule="nonzero"/></clipPath><clipPath id="442c4ae386"><path d="M 230 14.316406 L 260 14.316406 L 260 44 L 230 44 Z M 230 14.316406 " clip-rule="nonzero"/></clipPath></defs><g clip-path="url(#2e5c224090)"><path fill="#2e1b5b" d="M 346.152344 72.113281 L 346.152344 43.265625 L 317.308594 43.265625 L 317.308594 14.421875 L 230.769531 14.421875 L 230.769531 43.265625 L 201.921875 43.265625 L 201.921875 72.113281 L 173.078125 72.113281 L 173.078125 43.265625 L 144.230469 43.265625 L 144.230469 14.421875 L 57.691406 14.421875 L 57.691406 43.265625 L 28.847656 43.265625 L 28.847656 72.113281 L 0 72.113281 L 0 187.496094 L 28.847656 187.496094 L 28.847656 216.34375 L 57.691406 216.34375 L 57.691406 245.191406 L 86.539062 245.191406 L 86.539062 274.035156 L 115.382812 274.035156 L 115.382812 302.882812 L 144.230469 302.882812 L 144.230469 331.730469 L 173.078125 331.730469 L 173.078125 360.574219 L 201.921875 360.574219 L 201.921875 331.730469 L 230.769531 331.730469 L 230.769531 302.882812 L 259.617188 302.882812 L 259.617188 274.035156 L 288.460938 274.035156 L 288.460938 245.191406 L 317.308594 245.191406 L 317.308594 216.34375 L 346.152344 216.34375 L 346.152344 187.496094 L 375 187.496094 L 375 72.113281 Z M 346.152344 72.113281 " fill-opacity="1" fill-rule="nonzero"/><path fill="#ff0000" d="M 346.152344 72.113281 L 346.152344 43.265625 L 317.308594 43.265625 L 317.308594 14.421875 L 230.769531 14.421875 L 230.769531 43.265625 L 201.921875 43.265625 L 201.921875 72.113281 L 173.078125 72.113281 L 173.078125 43.265625 L 144.230469 43.265625 L 144.230469 14.421875 L 57.691406 14.421875 L 57.691406 43.265625 L 28.847656 43.265625 L 28.847656 72.113281 L 0 72.113281 L 0 187.496094 L 28.847656 187.496094 L 28.847656 216.34375 L 57.691406 216.34375 L 57.691406 245.191406 L 86.539062 245.191406 L 86.539062 274.035156 L 115.382812 274.035156 L 115.382812 302.882812 L 144.230469 302.882812 L 144.230469 331.730469 L 173.078125 331.730469 L 173.078125 360.574219 L 201.921875 360.574219 L 201.921875 331.730469 L 230.769531 331.730469 L 230.769531 302.882812 L 259.617188 302.882812 L 259.617188 274.035156 L 288.460938 274.035156 L 288.460938 245.191406 L 317.308594 245.191406 L 317.308594 216.34375 L 346.152344 216.34375 L 346.152344 187.496094 L 375 187.496094 L 375 72.113281 Z M 346.152344 72.113281 " fill-opacity="1" fill-rule="nonzero"/></g><g clip-path="url(#0d51f1fe2b)"><path fill="#2e1b5b" d="M 57.691406 14.421875 L 86.539062 14.421875 L 86.539062 43.265625 L 57.691406 43.265625 Z M 57.691406 14.421875 " fill-opacity="1" fill-rule="nonzero"/></g><path fill="#2e1b5b" d="M 28.847656 43.265625 L 57.691406 43.265625 L 57.691406 72.113281 L 28.847656 72.113281 Z M 28.847656 43.265625 " fill-opacity="1" fill-rule="nonzero"/><path fill="#2e1b5b" d="M 0 72.113281 L 28.847656 72.113281 L 28.847656 187.496094 L 0 187.496094 Z M 0 72.113281 " fill-opacity="1" fill-rule="nonzero"/><path fill="#2e1b5b" d="M 28.847656 187.496094 L 57.691406 187.496094 L 57.691406 216.34375 L 28.847656 216.34375 Z M 28.847656 187.496094 " fill-opacity="1" fill-rule="nonzero"/><path fill="#2e1b5b" d="M 57.691406 216.34375 L 86.539062 216.34375 L 86.539062 245.191406 L 57.691406 245.191406 Z M 57.691406 216.34375 " fill-opacity="1" fill-rule="nonzero"/><path fill="#2e1b5b" d="M 86.539062 245.191406 L 115.382812 245.191406 L 115.382812 274.035156 L 86.539062 274.035156 Z M 86.539062 245.191406 " fill-opacity="1" fill-rule="nonzero"/><path fill="#2e1b5b" d="M 115.382812 274.035156 L 144.230469 274.035156 L 144.230469 302.882812 L 115.382812 302.882812 Z M 115.382812 274.035156 " fill-opacity="1" fill-rule="nonzero"/><path fill="#2e1b5b" d="M 144.230469 302.882812 L 173.078125 302.882812 L 173.078125 331.730469 L 144.230469 331.730469 Z M 144.230469 302.882812 " fill-opacity="1" fill-rule="nonzero"/><g clip-path="url(#581f618309)"><path fill="#2e1b5b" d="M 173.078125 331.730469 L 201.921875 331.730469 L 201.921875 360.574219 L 173.078125 360.574219 Z M 173.078125 331.730469 " fill-opacity="1" fill-rule="nonzero"/></g><path fill="#2e1b5b" d="M 201.921875 43.265625 L 230.769531 43.265625 L 230.769531 72.113281 L 201.921875 72.113281 Z M 201.921875 43.265625 " fill-opacity="1" fill-rule="nonzero"/><g clip-path="url(#442c4ae386)"><path fill="#2e1b5b" d="M 230.769531 14.421875 L 259.617188 14.421875 L 259.617188 43.265625 L 230.769531 43.265625 Z M 230.769531 14.421875 " fill-opacity="1" fill-rule="nonzero"/></g><path fill="#c30000" d="M 86.539062 216.34375 L 115.382812 216.34375 L 115.382812 245.191406 L 86.539062 245.191406 Z M 86.539062 216.34375 " fill-opacity="1" fill-rule="nonzero"/><path fill="#c30000" d="M 115.382812 245.191406 L 144.230469 245.191406 L 144.230469 274.035156 L 115.382812 274.035156 Z M 115.382812 245.191406 " fill-opacity="1" fill-rule="nonzero"/><path fill="#c30000" d="M 144.230469 274.035156 L 173.078125 274.035156 L 173.078125 302.882812 L 144.230469 302.882812 Z M 144.230469 274.035156 " fill-opacity="1" fill-rule="nonzero"/><path fill="#c30000" d="M 173.078125 302.882812 L 201.921875 302.882812 L 201.921875 331.730469 L 173.078125 331.730469 Z M 173.078125 302.882812 " fill-opacity="1" fill-rule="nonzero"/><path fill="#c30000" d="M 57.691406 43.265625 L 86.539062 43.265625 L 86.539062 72.113281 L 57.691406 72.113281 Z M 57.691406 43.265625 " fill-opacity="1" fill-rule="nonzero"/><path fill="#c30000" d="M 86.539062 129.804688 L 86.539062 100.960938 L 57.691406 100.960938 L 57.691406 72.113281 L 28.847656 72.113281 L 28.847656 187.496094 L 57.691406 187.496094 L 57.691406 216.34375 L 86.539062 216.34375 L 86.539062 158.652344 L 57.691406 158.652344 L 57.691406 129.804688 Z M 86.539062 129.804688 " fill-opacity="1" fill-rule="nonzero"/><path fill="#c30000" d="M 115.382812 187.496094 L 144.230469 187.496094 L 144.230469 216.34375 L 115.382812 216.34375 Z M 115.382812 187.496094 " fill-opacity="1" fill-rule="nonzero"/><path fill="#c30000" d="M 144.230469 158.652344 L 173.078125 158.652344 L 173.078125 187.496094 L 144.230469 187.496094 Z M 144.230469 158.652344 " fill-opacity="1" fill-rule="nonzero"/><path fill="#c30000" d="M 173.078125 245.191406 L 201.921875 245.191406 L 201.921875 274.035156 L 173.078125 274.035156 Z M 173.078125 245.191406 " fill-opacity="1" fill-rule="nonzero"/><path fill="#c30000" d="M 144.230469 216.34375 L 173.078125 216.34375 L 173.078125 245.191406 L 144.230469 245.191406 Z M 144.230469 216.34375 " fill-opacity="1" fill-rule="nonzero"/><path fill="#c30000" d="M 230.769531 216.34375 L 259.617188 216.34375 L 259.617188 245.191406 L 230.769531 245.191406 Z M 230.769531 216.34375 " fill-opacity="1" fill-rule="nonzero"/><path fill="#c30000" d="M 201.921875 274.035156 L 230.769531 274.035156 L 230.769531 302.882812 L 201.921875 302.882812 Z M 201.921875 274.035156 " fill-opacity="1" fill-rule="nonzero"/><path fill="#f2fcfc" d="M 86.539062 100.960938 L 115.382812 100.960938 L 115.382812 129.804688 L 86.539062 129.804688 Z M 86.539062 100.960938 " fill-opacity="1" fill-rule="nonzero"/><path fill="#f2fcfc" d="M 57.691406 129.804688 L 86.539062 129.804688 L 86.539062 158.652344 L 57.691406 158.652344 Z M 57.691406 129.804688 " fill-opacity="1" fill-rule="nonzero"/><path fill="#f2fcfc" d="M 57.691406 72.113281 L 86.539062 72.113281 L 86.539062 100.960938 L 57.691406 100.960938 Z M 57.691406 72.113281 " fill-opacity="1" fill-rule="nonzero"/><path fill="#ff4d4d" d="M 86.539062 72.113281 L 144.230469 72.113281 L 144.230469 100.960938 L 86.539062 100.960938 Z M 86.539062 72.113281 " fill-opacity="1" fill-rule="nonzero"/><path fill="#ff4d4d" d="M 57.691406 100.960938 L 86.539062 100.960938 L 86.539062 129.804688 L 57.691406 129.804688 Z M 57.691406 100.960938 " fill-opacity="1" fill-rule="nonzero"/><path fill="#ff4d4d" d="M 86.539062 187.496094 L 144.230469 187.496094 L 144.230469 158.652344 L 115.382812 158.652344 L 115.382812 129.804688 L 86.539062 129.804688 Z M 86.539062 187.496094 " fill-opacity="1" fill-rule="nonzero"/></svg>