<svg xmlns="http://www.w3.org/2000/svg" xmlns:xlink="http://www.w3.org/1999/xlink" width="1920" zoomAndPan="magnify" viewBox="0 0 1440 809.999993" height="1080" preserveAspectRatio="xMidYMid meet" version="1.0"><defs><g/></defs><rect x="-144" width="1728" fill="#ffffff" y="-80.999999" height="971.999992" fill-opacity="1"/><rect x="-144" width="1728" fill="#d40601" y="-80.999999" height="971.999992" fill-opacity="1"/><g fill="#30292e" fill-opacity="0.4"><g transform="translate(165.048224, 516.292041)"><g><path d="M 98.246094 -192.640625 C 95.359375 -192.640625 93.671875 -191.4375 92.710938 -188.789062 L 65.738281 -119.679688 L 38.769531 -188.789062 C 37.804688 -191.4375 36.121094 -192.640625 33.230469 -192.640625 L 9.152344 -192.640625 C 5.539062 -192.640625 3.851562 -190.476562 5.296875 -187.105469 L 49.363281 -79.945312 L 49.363281 -4.816406 C 49.363281 -1.6875 51.050781 0 54.179688 0 L 77.296875 0 C 80.429688 0 82.113281 -1.6875 82.113281 -4.816406 L 82.113281 -79.945312 L 126.179688 -187.105469 C 127.625 -190.476562 125.941406 -192.640625 122.328125 -192.640625 Z M 98.246094 -192.640625 "/></g></g></g><g fill="#30292e" fill-opacity="0.4"><g transform="translate(296.525669, 516.292041)"><g><path d="M 12.039062 -34.675781 C 12.039062 -12.039062 24.082031 0 46.714844 0 L 73.6875 0 C 96.320312 0 108.359375 -12.039062 108.359375 -34.675781 L 108.359375 -157.964844 C 108.359375 -180.601562 96.320312 -192.640625 73.6875 -192.640625 L 46.714844 -192.640625 C 24.082031 -192.640625 12.039062 -180.601562 12.039062 -157.964844 Z M 53.699219 -31.0625 C 47.4375 -31.0625 44.066406 -34.195312 44.066406 -40.695312 L 44.066406 -151.945312 C 44.066406 -158.207031 47.4375 -161.578125 53.699219 -161.578125 L 67.664062 -161.578125 C 73.925781 -161.578125 77.296875 -158.207031 77.296875 -151.945312 L 77.296875 -40.695312 C 77.296875 -34.195312 73.925781 -31.0625 67.664062 -31.0625 Z M 53.699219 -31.0625 "/></g></g></g><g fill="#30292e" fill-opacity="0.4"><g transform="translate(416.926246, 516.292041)"><g><path d="M 81.390625 -192.640625 C 78.742188 -192.640625 76.574219 -190.476562 76.574219 -187.828125 L 76.574219 -41.417969 C 76.574219 -34.917969 73.203125 -31.785156 66.941406 -31.785156 L 54.421875 -31.785156 C 48.160156 -31.785156 44.789062 -34.917969 44.789062 -41.417969 L 44.789062 -187.828125 C 44.789062 -190.476562 42.621094 -192.640625 39.972656 -192.640625 L 16.855469 -192.640625 C 14.207031 -192.640625 12.039062 -190.476562 12.039062 -187.828125 L 12.039062 -34.675781 C 12.039062 -12.039062 24.082031 0 46.714844 0 L 73.6875 0 C 96.320312 0 108.359375 -12.039062 108.359375 -34.675781 L 108.359375 -187.828125 C 108.359375 -190.476562 106.195312 -192.640625 103.546875 -192.640625 Z M 81.390625 -192.640625 "/></g></g></g><g fill="#30292e" fill-opacity="0.4"><g transform="translate(537.326822, 516.292041)"><g/></g></g><g fill="#30292e" fill-opacity="0.4"><g transform="translate(597.527111, 516.292041)"><g><path d="M 12.039062 -3.851562 C 12.039062 -1.203125 13.246094 0 15.894531 0 L 73.6875 0 C 96.320312 0 108.359375 -12.039062 108.359375 -34.675781 L 108.359375 -157.726562 C 108.359375 -180.363281 96.320312 -192.640625 73.6875 -192.640625 L 15.894531 -192.640625 C 13.246094 -192.640625 12.039062 -191.199219 12.039062 -188.789062 Z M 44.789062 -31.785156 L 44.789062 -160.855469 L 66.941406 -160.855469 C 73.203125 -160.855469 76.574219 -157.484375 76.574219 -150.984375 L 76.574219 -41.417969 C 76.574219 -34.917969 73.203125 -31.785156 66.941406 -31.785156 Z M 44.789062 -31.785156 "/></g></g></g><g fill="#30292e" fill-opacity="0.4"><g transform="translate(717.927687, 516.292041)"><g><path d="M 15.894531 -192.640625 C 13.246094 -192.640625 12.039062 -191.199219 12.039062 -188.789062 L 12.039062 -3.851562 C 12.039062 -1.445312 13.246094 0 15.894531 0 L 40.9375 0 C 43.34375 0 44.789062 -1.445312 44.789062 -3.851562 L 44.789062 -188.789062 C 44.789062 -191.199219 43.34375 -192.640625 40.9375 -192.640625 Z M 15.894531 -192.640625 "/></g></g></g><g fill="#30292e" fill-opacity="0.4"><g transform="translate(774.756765, 516.292041)"><g><path d="M 108.121094 -188.789062 C 108.121094 -191.199219 107.15625 -192.640625 104.269531 -192.640625 L 15.652344 -192.640625 C 13.484375 -192.640625 12.039062 -191.199219 12.039062 -188.789062 L 12.039062 -3.851562 C 12.039062 -1.445312 13.484375 0 15.652344 0 L 104.269531 0 C 107.15625 0 108.121094 -1.445312 108.121094 -3.851562 L 108.121094 -27.933594 C 108.121094 -30.582031 107.15625 -31.785156 104.269531 -31.785156 L 44.066406 -31.785156 L 44.066406 -80.429688 L 90.058594 -80.429688 C 92.46875 -80.429688 93.914062 -81.871094 93.914062 -84.523438 L 93.914062 -108.359375 C 93.914062 -111.011719 92.46875 -112.453125 90.058594 -112.453125 L 44.066406 -112.453125 L 44.066406 -160.617188 L 104.269531 -160.617188 C 107.15625 -160.617188 108.121094 -162.300781 108.121094 -164.710938 Z M 108.121094 -188.789062 "/></g></g></g><g fill="#30292e" fill-opacity="0.4"><g transform="translate(894.916553, 516.292041)"><g><path d="M 12.039062 -3.851562 C 12.039062 -1.203125 13.246094 0 15.894531 0 L 73.6875 0 C 96.320312 0 108.359375 -12.039062 108.359375 -34.675781 L 108.359375 -157.726562 C 108.359375 -180.363281 96.320312 -192.640625 73.6875 -192.640625 L 15.894531 -192.640625 C 13.246094 -192.640625 12.039062 -191.199219 12.039062 -188.789062 Z M 44.789062 -31.785156 L 44.789062 -160.855469 L 66.941406 -160.855469 C 73.203125 -160.855469 76.574219 -157.484375 76.574219 -150.984375 L 76.574219 -41.417969 C 76.574219 -34.917969 73.203125 -31.785156 66.941406 -31.785156 Z M 44.789062 -31.785156 "/></g></g></g><g fill="#30292e" fill-opacity="1"><g transform="translate(153.433859, 499.073037)"><g><path d="M 98.246094 -192.640625 C 95.359375 -192.640625 93.671875 -191.4375 92.710938 -188.789062 L 65.738281 -119.679688 L 38.769531 -188.789062 C 37.804688 -191.4375 36.121094 -192.640625 33.230469 -192.640625 L 9.152344 -192.640625 C 5.539062 -192.640625 3.851562 -190.476562 5.296875 -187.105469 L 49.363281 -79.945312 L 49.363281 -4.816406 C 49.363281 -1.6875 51.050781 0 54.179688 0 L 77.296875 0 C 80.429688 0 82.113281 -1.6875 82.113281 -4.816406 L 82.113281 -79.945312 L 126.179688 -187.105469 C 127.625 -190.476562 125.941406 -192.640625 122.328125 -192.640625 Z M 98.246094 -192.640625 "/></g></g></g><g fill="#30292e" fill-opacity="1"><g transform="translate(284.911304, 499.073037)"><g><path d="M 12.039062 -34.675781 C 12.039062 -12.039062 24.082031 0 46.714844 0 L 73.6875 0 C 96.320312 0 108.359375 -12.039062 108.359375 -34.675781 L 108.359375 -157.964844 C 108.359375 -180.601562 96.320312 -192.640625 73.6875 -192.640625 L 46.714844 -192.640625 C 24.082031 -192.640625 12.039062 -180.601562 12.039062 -157.964844 Z M 53.699219 -31.0625 C 47.4375 -31.0625 44.066406 -34.195312 44.066406 -40.695312 L 44.066406 -151.945312 C 44.066406 -158.207031 47.4375 -161.578125 53.699219 -161.578125 L 67.664062 -161.578125 C 73.925781 -161.578125 77.296875 -158.207031 77.296875 -151.945312 L 77.296875 -40.695312 C 77.296875 -34.195312 73.925781 -31.0625 67.664062 -31.0625 Z M 53.699219 -31.0625 "/></g></g></g><g fill="#30292e" fill-opacity="1"><g transform="translate(405.311881, 499.073037)"><g><path d="M 81.390625 -192.640625 C 78.742188 -192.640625 76.574219 -190.476562 76.574219 -187.828125 L 76.574219 -41.417969 C 76.574219 -34.917969 73.203125 -31.785156 66.941406 -31.785156 L 54.421875 -31.785156 C 48.160156 -31.785156 44.789062 -34.917969 44.789062 -41.417969 L 44.789062 -187.828125 C 44.789062 -190.476562 42.621094 -192.640625 39.972656 -192.640625 L 16.855469 -192.640625 C 14.207031 -192.640625 12.039062 -190.476562 12.039062 -187.828125 L 12.039062 -34.675781 C 12.039062 -12.039062 24.082031 0 46.714844 0 L 73.6875 0 C 96.320312 0 108.359375 -12.039062 108.359375 -34.675781 L 108.359375 -187.828125 C 108.359375 -190.476562 106.195312 -192.640625 103.546875 -192.640625 Z M 81.390625 -192.640625 "/></g></g></g><g fill="#30292e" fill-opacity="1"><g transform="translate(525.712457, 499.073037)"><g/></g></g><g fill="#30292e" fill-opacity="1"><g transform="translate(585.912746, 499.073037)"><g><path d="M 12.039062 -3.851562 C 12.039062 -1.203125 13.246094 0 15.894531 0 L 73.6875 0 C 96.320312 0 108.359375 -12.039062 108.359375 -34.675781 L 108.359375 -157.726562 C 108.359375 -180.363281 96.320312 -192.640625 73.6875 -192.640625 L 15.894531 -192.640625 C 13.246094 -192.640625 12.039062 -191.199219 12.039062 -188.789062 Z M 44.789062 -31.785156 L 44.789062 -160.855469 L 66.941406 -160.855469 C 73.203125 -160.855469 76.574219 -157.484375 76.574219 -150.984375 L 76.574219 -41.417969 C 76.574219 -34.917969 73.203125 -31.785156 66.941406 -31.785156 Z M 44.789062 -31.785156 "/></g></g></g><g fill="#30292e" fill-opacity="1"><g transform="translate(706.313322, 499.073037)"><g><path d="M 15.894531 -192.640625 C 13.246094 -192.640625 12.039062 -191.199219 12.039062 -188.789062 L 12.039062 -3.851562 C 12.039062 -1.445312 13.246094 0 15.894531 0 L 40.9375 0 C 43.34375 0 44.789062 -1.445312 44.789062 -3.851562 L 44.789062 -188.789062 C 44.789062 -191.199219 43.34375 -192.640625 40.9375 -192.640625 Z M 15.894531 -192.640625 "/></g></g></g><g fill="#30292e" fill-opacity="1"><g transform="translate(763.1424, 499.073037)"><g><path d="M 108.121094 -188.789062 C 108.121094 -191.199219 107.15625 -192.640625 104.269531 -192.640625 L 15.652344 -192.640625 C 13.484375 -192.640625 12.039062 -191.199219 12.039062 -188.789062 L 12.039062 -3.851562 C 12.039062 -1.445312 13.484375 0 15.652344 0 L 104.269531 0 C 107.15625 0 108.121094 -1.445312 108.121094 -3.851562 L 108.121094 -27.933594 C 108.121094 -30.582031 107.15625 -31.785156 104.269531 -31.785156 L 44.066406 -31.785156 L 44.066406 -80.429688 L 90.058594 -80.429688 C 92.46875 -80.429688 93.914062 -81.871094 93.914062 -84.523438 L 93.914062 -108.359375 C 93.914062 -111.011719 92.46875 -112.453125 90.058594 -112.453125 L 44.066406 -112.453125 L 44.066406 -160.617188 L 104.269531 -160.617188 C 107.15625 -160.617188 108.121094 -162.300781 108.121094 -164.710938 Z M 108.121094 -188.789062 "/></g></g></g><g fill="#30292e" fill-opacity="1"><g transform="translate(883.302188, 499.073037)"><g><path d="M 12.039062 -3.851562 C 12.039062 -1.203125 13.246094 0 15.894531 0 L 73.6875 0 C 96.320312 0 108.359375 -12.039062 108.359375 -34.675781 L 108.359375 -157.726562 C 108.359375 -180.363281 96.320312 -192.640625 73.6875 -192.640625 L 15.894531 -192.640625 C 13.246094 -192.640625 12.039062 -191.199219 12.039062 -188.789062 Z M 44.789062 -31.785156 L 44.789062 -160.855469 L 66.941406 -160.855469 C 73.203125 -160.855469 76.574219 -157.484375 76.574219 -150.984375 L 76.574219 -41.417969 C 76.574219 -34.917969 73.203125 -31.785156 66.941406 -31.785156 Z M 44.789062 -31.785156 "/></g></g></g><path fill="#30292e" d="M 1252.328125 370.960938 C 1244.046875 354.800781 1230.019531 345.140625 1216.472656 339.371094 C 1213.550781 338.132812 1210.574219 337.046875 1207.542969 336.109375 C 1204.511719 335.167969 1201.441406 334.382812 1198.332031 333.75 C 1195.222656 333.113281 1192.089844 332.636719 1188.929688 332.3125 C 1185.773438 331.992188 1182.609375 331.824219 1179.433594 331.816406 C 1176.261719 331.808594 1173.097656 331.960938 1169.9375 332.265625 C 1166.777344 332.570312 1163.644531 333.035156 1160.53125 333.652344 C 1157.417969 334.269531 1154.34375 335.042969 1151.308594 335.964844 C 1148.269531 336.886719 1145.289062 337.960938 1142.359375 339.179688 C 1128.484375 344.929688 1114.074219 354.621094 1105.703125 370.960938 C 1099.058594 383.933594 1097.183594 398.800781 1099.613281 413.175781 C 1101.90625 426.726562 1108.050781 444.535156 1124.101562 456.066406 C 1125.652344 457.199219 1126.910156 458.59375 1127.878906 460.25 C 1128.847656 461.910156 1129.441406 463.691406 1129.664062 465.601562 L 1132.757812 490.925781 C 1132.824219 491.46875 1132.9375 492 1133.101562 492.519531 C 1133.265625 493.042969 1133.472656 493.546875 1133.726562 494.03125 C 1133.980469 494.511719 1134.277344 494.96875 1134.613281 495.402344 C 1134.953125 495.832031 1135.324219 496.226562 1135.734375 496.589844 C 1136.144531 496.953125 1136.582031 497.273438 1137.050781 497.554688 C 1137.519531 497.839844 1138.007812 498.078125 1138.519531 498.269531 C 1139.03125 498.464844 1139.554688 498.609375 1140.089844 498.710938 C 1140.628906 498.808594 1141.171875 498.855469 1141.71875 498.855469 L 1150.082031 498.710938 C 1150.515625 498.703125 1150.941406 498.65625 1151.367188 498.5625 C 1151.789062 498.472656 1152.199219 498.34375 1152.597656 498.171875 C 1152.996094 498 1153.371094 497.792969 1153.730469 497.546875 C 1154.085938 497.304688 1154.417969 497.027344 1154.71875 496.71875 C 1155.023438 496.410156 1155.292969 496.074219 1155.53125 495.714844 C 1155.769531 495.351562 1155.972656 494.972656 1156.136719 494.570312 C 1156.296875 494.171875 1156.421875 493.757812 1156.507812 493.332031 C 1156.589844 492.910156 1156.632812 492.480469 1156.632812 492.046875 L 1156.632812 484.097656 C 1156.625 483.671875 1156.660156 483.25 1156.734375 482.832031 C 1156.808594 482.410156 1156.921875 482.003906 1157.074219 481.605469 C 1157.226562 481.207031 1157.417969 480.828125 1157.644531 480.46875 C 1157.867188 480.105469 1158.125 479.769531 1158.414062 479.460938 C 1158.707031 479.148438 1159.023438 478.867188 1159.367188 478.617188 C 1159.710938 478.363281 1160.074219 478.148438 1160.460938 477.96875 C 1160.847656 477.785156 1161.246094 477.644531 1161.65625 477.539062 C 1162.070312 477.433594 1162.488281 477.371094 1162.914062 477.347656 C 1163.347656 477.332031 1163.777344 477.363281 1164.207031 477.4375 C 1164.632812 477.507812 1165.050781 477.625 1165.457031 477.78125 C 1165.859375 477.9375 1166.246094 478.132812 1166.609375 478.367188 C 1166.976562 478.601562 1167.3125 478.871094 1167.625 479.171875 C 1167.9375 479.476562 1168.214844 479.804688 1168.460938 480.164062 C 1168.707031 480.519531 1168.914062 480.898438 1169.082031 481.300781 C 1169.25 481.699219 1169.378906 482.113281 1169.464844 482.535156 C 1169.550781 482.960938 1169.59375 483.390625 1169.59375 483.824219 C 1169.59375 483.824219 1169.59375 488.171875 1169.589844 492.1875 C 1169.589844 492.625 1169.632812 493.058594 1169.714844 493.488281 C 1169.800781 493.917969 1169.925781 494.335938 1170.09375 494.742188 C 1170.261719 495.144531 1170.46875 495.53125 1170.710938 495.894531 C 1170.953125 496.257812 1171.230469 496.59375 1171.539062 496.90625 C 1171.847656 497.214844 1172.1875 497.492188 1172.550781 497.734375 C 1172.914062 497.976562 1173.296875 498.183594 1173.703125 498.351562 C 1174.105469 498.519531 1174.523438 498.644531 1174.953125 498.730469 C 1175.382812 498.816406 1175.816406 498.859375 1176.253906 498.859375 L 1182.710938 498.859375 C 1183.148438 498.859375 1183.582031 498.816406 1184.011719 498.730469 C 1184.441406 498.644531 1184.859375 498.519531 1185.265625 498.351562 C 1185.667969 498.183594 1186.054688 497.980469 1186.417969 497.734375 C 1186.78125 497.492188 1187.117188 497.214844 1187.429688 496.90625 C 1187.738281 496.597656 1188.015625 496.257812 1188.257812 495.894531 C 1188.5 495.53125 1188.707031 495.144531 1188.871094 494.742188 C 1189.039062 494.335938 1189.167969 493.917969 1189.253906 493.488281 C 1189.335938 493.058594 1189.378906 492.625 1189.378906 492.1875 C 1189.378906 488.171875 1189.371094 483.824219 1189.371094 483.824219 C 1189.378906 483.402344 1189.421875 482.984375 1189.507812 482.570312 C 1189.59375 482.15625 1189.71875 481.753906 1189.886719 481.363281 C 1190.050781 480.976562 1190.25 480.605469 1190.488281 480.253906 C 1190.726562 479.90625 1190.992188 479.582031 1191.292969 479.285156 C 1191.59375 478.984375 1191.921875 478.71875 1192.273438 478.488281 C 1192.625 478.253906 1193 478.054688 1193.390625 477.894531 C 1193.78125 477.734375 1194.183594 477.613281 1194.597656 477.53125 C 1195.011719 477.449219 1195.433594 477.40625 1195.855469 477.40625 C 1196.277344 477.40625 1196.699219 477.449219 1197.113281 477.53125 C 1197.527344 477.613281 1197.929688 477.734375 1198.320312 477.894531 C 1198.710938 478.054688 1199.085938 478.253906 1199.4375 478.488281 C 1199.789062 478.71875 1200.117188 478.984375 1200.417969 479.285156 C 1200.71875 479.582031 1200.984375 479.90625 1201.222656 480.253906 C 1201.460938 480.605469 1201.660156 480.976562 1201.828125 481.363281 C 1201.992188 481.753906 1202.117188 482.15625 1202.203125 482.570312 C 1202.289062 482.984375 1202.332031 483.402344 1202.339844 483.824219 C 1202.339844 483.824219 1202.339844 488.171875 1202.332031 492.1875 C 1202.332031 492.625 1202.375 493.058594 1202.460938 493.488281 C 1202.542969 493.917969 1202.671875 494.335938 1202.835938 494.742188 C 1203.003906 495.144531 1203.210938 495.53125 1203.453125 495.894531 C 1203.695312 496.257812 1203.972656 496.59375 1204.28125 496.90625 C 1204.59375 497.214844 1204.929688 497.492188 1205.292969 497.734375 C 1205.65625 497.976562 1206.039062 498.183594 1206.445312 498.351562 C 1206.851562 498.519531 1207.265625 498.644531 1207.695312 498.730469 C 1208.125 498.816406 1208.558594 498.859375 1208.996094 498.859375 L 1216.316406 498.859375 C 1216.863281 498.859375 1217.402344 498.808594 1217.941406 498.710938 C 1218.480469 498.613281 1219.003906 498.46875 1219.515625 498.273438 C 1220.027344 498.078125 1220.515625 497.839844 1220.984375 497.558594 C 1221.453125 497.277344 1221.890625 496.953125 1222.300781 496.589844 C 1222.707031 496.230469 1223.082031 495.832031 1223.417969 495.402344 C 1223.757812 494.972656 1224.050781 494.515625 1224.308594 494.03125 C 1224.5625 493.546875 1224.769531 493.042969 1224.933594 492.523438 C 1225.09375 492 1225.210938 491.46875 1225.277344 490.925781 L 1228.371094 465.601562 C 1228.59375 463.695312 1229.1875 461.914062 1230.15625 460.253906 C 1231.121094 458.59375 1232.382812 457.199219 1233.933594 456.066406 C 1249.984375 444.539062 1256.128906 426.726562 1258.417969 413.175781 C 1260.851562 398.804688 1258.976562 383.933594 1252.328125 370.960938 Z M 1147.519531 431.878906 C 1135.777344 432.621094 1125.574219 422.421875 1124.734375 409.101562 C 1123.898438 395.777344 1132.742188 384.378906 1144.484375 383.636719 C 1156.226562 382.894531 1166.429688 393.097656 1167.269531 406.417969 C 1168.105469 419.738281 1159.265625 431.140625 1147.519531 431.878906 Z M 1186.480469 457.792969 L 1171.554688 457.792969 C 1170.828125 457.792969 1170.148438 457.613281 1169.519531 457.246094 C 1168.890625 456.878906 1168.398438 456.375 1168.039062 455.742188 C 1167.679688 455.109375 1167.503906 454.425781 1167.515625 453.699219 C 1167.527344 452.972656 1167.71875 452.296875 1168.09375 451.671875 L 1175.554688 439.277344 C 1175.734375 438.976562 1175.949219 438.707031 1176.199219 438.464844 C 1176.449219 438.222656 1176.726562 438.015625 1177.027344 437.84375 C 1177.332031 437.671875 1177.652344 437.542969 1177.988281 437.453125 C 1178.324219 437.363281 1178.667969 437.320312 1179.015625 437.320312 C 1179.363281 437.320312 1179.707031 437.363281 1180.042969 437.453125 C 1180.382812 437.542969 1180.703125 437.671875 1181.003906 437.84375 C 1181.308594 438.015625 1181.585938 438.222656 1181.832031 438.464844 C 1182.082031 438.707031 1182.296875 438.976562 1182.476562 439.277344 L 1189.9375 451.671875 C 1190.3125 452.296875 1190.507812 452.972656 1190.515625 453.699219 C 1190.527344 454.425781 1190.351562 455.109375 1189.996094 455.742188 C 1189.636719 456.375 1189.144531 456.875 1188.515625 457.242188 C 1187.886719 457.609375 1187.207031 457.792969 1186.480469 457.792969 Z M 1232.441406 409.097656 C 1231.601562 422.417969 1221.402344 432.617188 1209.65625 431.878906 C 1197.910156 431.140625 1189.070312 419.742188 1189.910156 406.417969 C 1190.746094 393.097656 1200.949219 382.898438 1212.695312 383.636719 C 1224.4375 384.378906 1233.277344 395.777344 1232.4375 409.097656 Z M 1232.441406 409.097656 " fill-opacity="1" fill-rule="nonzero"/><path fill="#30292e" d="M 1040.761719 342.515625 C 1047.949219 346.195312 1056.113281 345.3125 1061.277344 340.878906 C 1061.535156 340.65625 1061.824219 340.484375 1062.140625 340.367188 C 1062.460938 340.253906 1062.792969 340.195312 1063.132812 340.203125 C 1063.472656 340.207031 1063.800781 340.273438 1064.113281 340.402344 C 1064.429688 340.53125 1064.710938 340.707031 1064.960938 340.941406 L 1081.722656 356.320312 C 1082.097656 356.671875 1082.5 356.980469 1082.9375 357.253906 C 1083.375 357.523438 1083.832031 357.75 1084.3125 357.929688 C 1084.792969 358.109375 1085.289062 358.242188 1085.792969 358.328125 C 1086.300781 358.410156 1086.8125 358.441406 1087.324219 358.425781 C 1087.839844 358.410156 1088.34375 358.34375 1088.84375 358.226562 C 1089.34375 358.109375 1089.828125 357.945312 1090.296875 357.730469 C 1090.765625 357.519531 1091.207031 357.265625 1091.625 356.964844 C 1092.042969 356.664062 1092.425781 356.328125 1092.777344 355.953125 L 1099.300781 348.984375 C 1099.652344 348.609375 1099.960938 348.207031 1100.234375 347.769531 C 1100.503906 347.332031 1100.730469 346.875 1100.910156 346.394531 C 1101.09375 345.914062 1101.222656 345.417969 1101.308594 344.914062 C 1101.390625 344.40625 1101.425781 343.894531 1101.40625 343.382812 C 1101.390625 342.867188 1101.324219 342.363281 1101.207031 341.863281 C 1101.089844 341.363281 1100.925781 340.878906 1100.714844 340.410156 C 1100.5 339.941406 1100.246094 339.5 1099.945312 339.082031 C 1099.648438 338.664062 1099.308594 338.28125 1098.933594 337.929688 L 1083.246094 323.554688 C 1082.816406 323.152344 1082.472656 322.6875 1082.214844 322.15625 C 1081.957031 321.628906 1081.800781 321.070312 1081.75 320.484375 C 1081.699219 319.898438 1081.753906 319.324219 1081.917969 318.757812 C 1082.082031 318.191406 1082.339844 317.675781 1082.695312 317.203125 C 1085.878906 313.011719 1089.894531 305.070312 1084.300781 296 C 1078.910156 287.253906 1068.480469 283.789062 1060.75 288.417969 C 1054.511719 292.148438 1052.011719 299.960938 1054.046875 307.46875 C 1054.125 307.742188 1054.164062 308.019531 1054.167969 308.300781 C 1054.175781 308.582031 1054.144531 308.863281 1054.078125 309.136719 C 1054.011719 309.410156 1053.910156 309.671875 1053.777344 309.921875 C 1053.640625 310.167969 1053.476562 310.394531 1053.285156 310.601562 C 1053.089844 310.808594 1052.875 310.988281 1052.636719 311.136719 C 1052.398438 311.285156 1052.144531 311.40625 1051.875 311.488281 C 1051.605469 311.574219 1051.328125 311.621094 1051.046875 311.636719 C 1050.765625 311.648438 1050.484375 311.625 1050.210938 311.566406 C 1042.582031 310.03125 1034.957031 313.042969 1031.640625 319.507812 C 1027.53125 327.53125 1031.617188 337.832031 1040.761719 342.515625 Z M 1040.761719 342.515625 " fill-opacity="1" fill-rule="nonzero"/><path fill="#30292e" d="M 1308.757812 311.570312 C 1308.484375 311.628906 1308.203125 311.652344 1307.921875 311.636719 C 1307.640625 311.625 1307.363281 311.574219 1307.09375 311.492188 C 1306.824219 311.40625 1306.570312 311.289062 1306.332031 311.136719 C 1306.09375 310.988281 1305.875 310.808594 1305.683594 310.605469 C 1305.492188 310.398438 1305.328125 310.171875 1305.191406 309.921875 C 1305.058594 309.675781 1304.957031 309.414062 1304.890625 309.136719 C 1304.824219 308.863281 1304.792969 308.585938 1304.796875 308.304688 C 1304.804688 308.019531 1304.84375 307.742188 1304.921875 307.472656 C 1306.957031 299.964844 1304.457031 292.152344 1298.21875 288.417969 C 1290.488281 283.792969 1280.058594 287.257812 1274.664062 296.003906 C 1269.074219 305.074219 1273.089844 313.015625 1276.273438 317.207031 C 1276.628906 317.675781 1276.886719 318.195312 1277.050781 318.757812 C 1277.214844 319.324219 1277.269531 319.902344 1277.21875 320.488281 C 1277.167969 321.074219 1277.011719 321.628906 1276.753906 322.160156 C 1276.496094 322.6875 1276.152344 323.152344 1275.722656 323.554688 L 1260.03125 337.929688 C 1259.65625 338.28125 1259.320312 338.664062 1259.019531 339.082031 C 1258.722656 339.5 1258.464844 339.941406 1258.253906 340.410156 C 1258.042969 340.878906 1257.875 341.363281 1257.761719 341.863281 C 1257.644531 342.363281 1257.578125 342.867188 1257.558594 343.382812 C 1257.542969 343.894531 1257.574219 344.40625 1257.660156 344.914062 C 1257.742188 345.417969 1257.875 345.914062 1258.054688 346.394531 C 1258.234375 346.875 1258.460938 347.332031 1258.734375 347.769531 C 1259.003906 348.207031 1259.316406 348.609375 1259.667969 348.984375 L 1266.1875 355.953125 C 1266.539062 356.328125 1266.925781 356.664062 1267.339844 356.964844 C 1267.757812 357.265625 1268.203125 357.519531 1268.667969 357.730469 C 1269.136719 357.945312 1269.621094 358.109375 1270.121094 358.226562 C 1270.621094 358.34375 1271.128906 358.410156 1271.640625 358.425781 C 1272.15625 358.441406 1272.664062 358.410156 1273.171875 358.328125 C 1273.679688 358.242188 1274.171875 358.109375 1274.652344 357.929688 C 1275.132812 357.75 1275.59375 357.523438 1276.027344 357.253906 C 1276.464844 356.980469 1276.871094 356.667969 1277.246094 356.320312 L 1294.007812 340.941406 C 1294.253906 340.707031 1294.539062 340.53125 1294.851562 340.402344 C 1295.167969 340.273438 1295.496094 340.207031 1295.835938 340.203125 C 1296.175781 340.195312 1296.503906 340.253906 1296.824219 340.367188 C 1297.144531 340.484375 1297.433594 340.65625 1297.6875 340.878906 C 1302.851562 345.3125 1311.019531 346.199219 1318.203125 342.515625 C 1327.347656 337.832031 1331.433594 327.53125 1327.324219 319.511719 C 1324.015625 313.042969 1316.386719 310.035156 1308.757812 311.570312 Z M 1308.757812 311.570312 " fill-opacity="1" fill-rule="nonzero"/><path fill="#30292e" d="M 1050.210938 498.496094 C 1050.484375 498.433594 1050.765625 498.414062 1051.046875 498.425781 C 1051.328125 498.4375 1051.605469 498.488281 1051.875 498.570312 C 1052.144531 498.65625 1052.398438 498.773438 1052.636719 498.925781 C 1052.875 499.074219 1053.089844 499.253906 1053.285156 499.457031 C 1053.476562 499.664062 1053.640625 499.890625 1053.777344 500.140625 C 1053.910156 500.390625 1054.011719 500.648438 1054.078125 500.925781 C 1054.144531 501.199219 1054.175781 501.476562 1054.167969 501.761719 C 1054.164062 502.042969 1054.125 502.320312 1054.046875 502.589844 C 1052.011719 510.101562 1054.511719 517.910156 1060.75 521.644531 C 1068.480469 526.273438 1078.910156 522.804688 1084.300781 514.058594 C 1089.894531 504.988281 1085.878906 497.046875 1082.695312 492.855469 C 1082.339844 492.386719 1082.082031 491.871094 1081.917969 491.304688 C 1081.753906 490.738281 1081.699219 490.164062 1081.75 489.578125 C 1081.800781 488.988281 1081.953125 488.433594 1082.214844 487.902344 C 1082.472656 487.375 1082.816406 486.910156 1083.246094 486.507812 L 1098.933594 472.132812 C 1099.308594 471.78125 1099.644531 471.394531 1099.945312 470.980469 C 1100.246094 470.5625 1100.5 470.117188 1100.714844 469.652344 C 1100.925781 469.183594 1101.089844 468.699219 1101.207031 468.199219 C 1101.324219 467.699219 1101.390625 467.191406 1101.40625 466.679688 C 1101.425781 466.164062 1101.390625 465.65625 1101.308594 465.148438 C 1101.222656 464.640625 1101.089844 464.148438 1100.910156 463.667969 C 1100.730469 463.1875 1100.503906 462.726562 1100.234375 462.292969 C 1099.960938 461.855469 1099.652344 461.449219 1099.300781 461.074219 L 1092.777344 454.109375 C 1092.425781 453.734375 1092.042969 453.394531 1091.625 453.097656 C 1091.207031 452.796875 1090.765625 452.542969 1090.296875 452.328125 C 1089.828125 452.117188 1089.34375 451.953125 1088.84375 451.835938 C 1088.34375 451.71875 1087.835938 451.652344 1087.324219 451.636719 C 1086.8125 451.617188 1086.300781 451.652344 1085.792969 451.734375 C 1085.289062 451.816406 1084.792969 451.949219 1084.3125 452.132812 C 1083.832031 452.3125 1083.375 452.539062 1082.9375 452.808594 C 1082.5 453.082031 1082.09375 453.390625 1081.71875 453.742188 L 1064.960938 469.121094 C 1064.710938 469.351562 1064.429688 469.53125 1064.113281 469.660156 C 1063.796875 469.785156 1063.472656 469.851562 1063.132812 469.859375 C 1062.789062 469.863281 1062.460938 469.808594 1062.140625 469.691406 C 1061.824219 469.578125 1061.535156 469.40625 1061.277344 469.183594 C 1056.113281 464.746094 1047.945312 463.863281 1040.761719 467.546875 C 1031.617188 472.230469 1027.53125 482.527344 1031.640625 490.550781 C 1034.953125 497.019531 1042.582031 500.027344 1050.210938 498.496094 Z M 1050.210938 498.496094 " fill-opacity="1" fill-rule="nonzero"/><path fill="#30292e" d="M 1318.207031 467.546875 C 1311.019531 463.867188 1302.851562 464.75 1297.691406 469.1875 C 1297.433594 469.410156 1297.144531 469.578125 1296.824219 469.695312 C 1296.507812 469.8125 1296.175781 469.867188 1295.835938 469.859375 C 1295.496094 469.855469 1295.167969 469.789062 1294.855469 469.660156 C 1294.539062 469.535156 1294.257812 469.355469 1294.007812 469.121094 L 1277.246094 453.742188 C 1276.871094 453.394531 1276.464844 453.082031 1276.03125 452.8125 C 1275.59375 452.539062 1275.136719 452.3125 1274.65625 452.132812 C 1274.175781 451.953125 1273.679688 451.820312 1273.171875 451.738281 C 1272.667969 451.652344 1272.15625 451.621094 1271.644531 451.636719 C 1271.128906 451.652344 1270.621094 451.71875 1270.121094 451.835938 C 1269.621094 451.953125 1269.136719 452.117188 1268.671875 452.332031 C 1268.203125 452.542969 1267.761719 452.796875 1267.34375 453.097656 C 1266.925781 453.398438 1266.542969 453.734375 1266.191406 454.109375 L 1259.667969 461.078125 C 1259.316406 461.453125 1259.003906 461.859375 1258.734375 462.292969 C 1258.464844 462.730469 1258.238281 463.1875 1258.058594 463.667969 C 1257.875 464.148438 1257.742188 464.644531 1257.660156 465.152344 C 1257.578125 465.65625 1257.542969 466.167969 1257.558594 466.679688 C 1257.578125 467.195312 1257.644531 467.699219 1257.761719 468.203125 C 1257.878906 468.703125 1258.042969 469.183594 1258.253906 469.652344 C 1258.464844 470.121094 1258.722656 470.5625 1259.023438 470.980469 C 1259.320312 471.398438 1259.660156 471.78125 1260.035156 472.132812 L 1275.722656 486.507812 C 1276.152344 486.910156 1276.496094 487.375 1276.753906 487.90625 C 1277.011719 488.433594 1277.167969 488.992188 1277.21875 489.578125 C 1277.269531 490.164062 1277.210938 490.742188 1277.050781 491.304688 C 1276.886719 491.871094 1276.628906 492.390625 1276.273438 492.859375 C 1273.085938 497.050781 1269.074219 504.992188 1274.664062 514.0625 C 1280.058594 522.808594 1290.488281 526.273438 1298.21875 521.644531 C 1304.453125 517.914062 1306.957031 510.101562 1304.921875 502.59375 C 1304.84375 502.320312 1304.804688 502.042969 1304.796875 501.761719 C 1304.792969 501.480469 1304.824219 501.199219 1304.890625 500.925781 C 1304.957031 500.652344 1305.058594 500.390625 1305.191406 500.140625 C 1305.324219 499.894531 1305.488281 499.667969 1305.683594 499.460938 C 1305.875 499.253906 1306.09375 499.078125 1306.332031 498.925781 C 1306.570312 498.777344 1306.824219 498.660156 1307.09375 498.574219 C 1307.363281 498.488281 1307.640625 498.441406 1307.921875 498.425781 C 1308.203125 498.414062 1308.480469 498.4375 1308.757812 498.496094 C 1316.382812 500.03125 1324.011719 497.019531 1327.328125 490.550781 C 1331.433594 482.53125 1327.351562 472.230469 1318.207031 467.546875 Z M 1318.207031 467.546875 " fill-opacity="1" fill-rule="nonzero"/></svg>