<svg xmlns="http://www.w3.org/2000/svg" xmlns:xlink="http://www.w3.org/1999/xlink" width="500" zoomAndPan="magnify" viewBox="0 0 375 374.999991" height="500" preserveAspectRatio="xMidYMid meet" version="1.0"><defs><clipPath id="0805b91e16"><path d="M 72.894531 63 L 302.394531 63 L 302.394531 362.777344 L 72.894531 362.777344 Z M 72.894531 63 " clip-rule="nonzero"/></clipPath><clipPath id="3698dc4a56"><path d="M 148 12.527344 L 228 12.527344 L 228 50 L 148 50 Z M 148 12.527344 " clip-rule="nonzero"/></clipPath></defs><path fill="#a6def3" d="M 216.101562 141.9375 L 216.101562 68.617188 L 159.1875 68.617188 L 159.1875 141.9375 C 112.449219 154.464844 78.035156 197.09375 78.035156 247.765625 C 78.035156 308.28125 127.109375 357.335938 187.644531 357.335938 C 248.179688 357.335938 297.253906 308.28125 297.253906 247.765625 C 297.253906 197.09375 262.839844 154.464844 216.101562 141.9375 Z M 216.101562 141.9375 " fill-opacity="1" fill-rule="nonzero"/><g clip-path="url(#0805b91e16)"><path fill="#000000" d="M 187.644531 362.472656 C 124.371094 362.472656 72.894531 311.015625 72.894531 247.765625 C 72.894531 197.265625 106.066406 152.714844 154.046875 138.066406 L 154.046875 68.617188 C 154.046875 65.78125 156.347656 63.480469 159.1875 63.480469 L 216.101562 63.480469 C 218.9375 63.480469 221.238281 65.78125 221.238281 68.617188 L 221.238281 138.066406 C 269.21875 152.71875 302.394531 197.269531 302.394531 247.769531 C 302.394531 311.015625 250.917969 362.472656 187.644531 362.472656 Z M 164.328125 73.753906 L 164.328125 141.9375 C 164.328125 144.261719 162.765625 146.296875 160.519531 146.898438 C 114.980469 159.105469 83.171875 200.582031 83.171875 247.765625 C 83.171875 305.351562 130.039062 352.199219 187.644531 352.199219 C 245.25 352.199219 292.113281 305.351562 292.113281 247.765625 C 292.113281 200.582031 260.308594 159.105469 214.769531 146.898438 C 212.523438 146.296875 210.960938 144.261719 210.960938 141.9375 L 210.960938 73.753906 Z M 164.328125 73.753906 " fill-opacity="1" fill-rule="nonzero"/></g><path fill="#87499c" d="M 275.351562 247.765625 C 275.351562 296.1875 236.082031 335.441406 187.644531 335.441406 C 139.207031 335.441406 99.9375 296.1875 99.9375 247.765625 C 99.9375 232.089844 104.054688 217.378906 111.273438 204.640625 C 129.507812 204.386719 129.894531 198.074219 148.875 198.074219 C 168.257812 198.074219 168.257812 204.648438 187.636719 204.648438 C 207.019531 204.648438 207.019531 198.074219 226.394531 198.074219 C 245.386719 198.074219 245.769531 204.386719 264.011719 204.640625 C 271.230469 217.378906 275.351562 232.089844 275.351562 247.765625 Z M 275.351562 247.765625 " fill-opacity="1" fill-rule="nonzero"/><path fill="#000000" d="M 187.644531 340.578125 C 136.449219 340.578125 94.796875 298.945312 94.796875 247.765625 C 94.796875 231.753906 98.949219 215.96875 106.800781 202.109375 C 107.703125 200.523438 109.375 199.53125 111.203125 199.503906 C 119.320312 199.390625 123.464844 197.984375 127.847656 196.496094 C 132.765625 194.828125 138.339844 192.9375 148.875 192.9375 C 159.414062 192.9375 164.992188 194.828125 169.910156 196.496094 C 174.480469 198.046875 178.796875 199.511719 187.636719 199.511719 C 196.480469 199.511719 200.796875 198.046875 205.367188 196.496094 C 210.285156 194.828125 215.859375 192.9375 226.394531 192.9375 C 236.933594 192.9375 242.507812 194.828125 247.429688 196.496094 C 251.816406 197.984375 255.964844 199.390625 264.085938 199.503906 C 265.910156 199.53125 267.585938 200.523438 268.484375 202.109375 C 276.339844 215.96875 280.488281 231.757812 280.488281 247.765625 C 280.488281 298.945312 238.839844 340.578125 187.644531 340.578125 Z M 114.382812 209.675781 C 108.289062 221.375 105.074219 234.484375 105.074219 247.765625 C 105.074219 293.277344 142.117188 330.304688 187.644531 330.304688 C 233.171875 330.304688 270.210938 293.277344 270.210938 247.765625 C 270.210938 234.484375 267 221.375 260.902344 209.675781 C 253.039062 209.25 248.332031 207.652344 244.125 206.226562 C 239.554688 204.675781 235.238281 203.214844 226.394531 203.214844 C 217.558594 203.214844 213.242188 204.675781 208.671875 206.226562 C 203.753906 207.894531 198.175781 209.785156 187.636719 209.785156 C 177.101562 209.785156 171.527344 207.898438 166.609375 206.226562 C 162.035156 204.675781 157.71875 203.210938 148.875 203.210938 C 140.035156 203.210938 135.722656 204.675781 131.152344 206.226562 C 126.949219 207.652344 122.246094 209.25 114.382812 209.675781 Z M 114.382812 209.675781 " fill-opacity="1" fill-rule="nonzero"/><path fill="#84512e" d="M 153.269531 18.042969 L 222.019531 18.042969 L 222.019531 44.035156 L 153.269531 44.035156 Z M 153.269531 18.042969 " fill-opacity="1" fill-rule="nonzero"/><g clip-path="url(#3698dc4a56)"><path fill="#000000" d="M 222.015625 49.171875 L 153.269531 49.171875 C 150.429688 49.171875 148.128906 46.871094 148.128906 44.035156 L 148.128906 18.042969 C 148.128906 15.207031 150.429688 12.90625 153.269531 12.90625 L 222.015625 12.90625 C 224.855469 12.90625 227.15625 15.207031 227.15625 18.042969 L 227.15625 44.035156 C 227.15625 46.871094 224.855469 49.171875 222.015625 49.171875 Z M 158.410156 38.894531 L 216.878906 38.894531 L 216.878906 23.183594 L 158.410156 23.183594 Z M 158.410156 38.894531 " fill-opacity="1" fill-rule="nonzero"/></g><path fill="#73cfe9" d="M 143.378906 44.035156 L 231.910156 44.035156 L 231.910156 68.617188 L 143.378906 68.617188 Z M 143.378906 44.035156 " fill-opacity="1" fill-rule="nonzero"/><path fill="#000000" d="M 231.910156 73.753906 L 143.378906 73.753906 C 140.539062 73.753906 138.238281 71.453125 138.238281 68.617188 L 138.238281 44.035156 C 138.238281 41.195312 140.539062 38.894531 143.378906 38.894531 L 231.910156 38.894531 C 234.746094 38.894531 237.046875 41.195312 237.046875 44.035156 L 237.046875 68.617188 C 237.046875 71.453125 234.746094 73.753906 231.910156 73.753906 Z M 148.519531 63.480469 L 226.769531 63.480469 L 226.769531 49.171875 L 148.519531 49.171875 Z M 148.519531 63.480469 " fill-opacity="1" fill-rule="nonzero"/><path fill="#ab66a9" d="M 156.269531 247.765625 C 156.269531 248.613281 156.1875 249.453125 156.023438 250.28125 C 155.855469 251.109375 155.613281 251.917969 155.289062 252.699219 C 154.964844 253.480469 154.566406 254.222656 154.097656 254.925781 C 153.625 255.628906 153.09375 256.28125 152.492188 256.878906 C 151.894531 257.476562 151.242188 258.011719 150.539062 258.480469 C 149.835938 258.953125 149.09375 259.347656 148.3125 259.671875 C 147.53125 259.996094 146.722656 260.242188 145.894531 260.40625 C 145.0625 260.570312 144.226562 260.652344 143.378906 260.652344 C 142.53125 260.652344 141.695312 260.570312 140.863281 260.40625 C 140.035156 260.242188 139.226562 259.996094 138.445312 259.671875 C 137.664062 259.347656 136.921875 258.953125 136.21875 258.480469 C 135.511719 258.011719 134.863281 257.476562 134.265625 256.878906 C 133.664062 256.28125 133.132812 255.628906 132.660156 254.925781 C 132.191406 254.222656 131.792969 253.480469 131.46875 252.699219 C 131.144531 251.917969 130.902344 251.109375 130.734375 250.28125 C 130.570312 249.453125 130.488281 248.613281 130.488281 247.765625 C 130.488281 246.921875 130.570312 246.082031 130.734375 245.253906 C 130.902344 244.421875 131.144531 243.617188 131.46875 242.835938 C 131.792969 242.054688 132.191406 241.3125 132.660156 240.609375 C 133.132812 239.90625 133.664062 239.253906 134.265625 238.65625 C 134.863281 238.058594 135.511719 237.523438 136.21875 237.054688 C 136.921875 236.582031 137.664062 236.1875 138.445312 235.863281 C 139.226562 235.539062 140.035156 235.292969 140.863281 235.128906 C 141.695312 234.964844 142.53125 234.882812 143.378906 234.882812 C 144.226562 234.882812 145.0625 234.964844 145.894531 235.128906 C 146.722656 235.292969 147.53125 235.539062 148.3125 235.863281 C 149.09375 236.1875 149.835938 236.582031 150.539062 237.054688 C 151.242188 237.523438 151.894531 238.058594 152.492188 238.65625 C 153.09375 239.253906 153.625 239.90625 154.097656 240.609375 C 154.566406 241.3125 154.964844 242.054688 155.289062 242.835938 C 155.613281 243.617188 155.855469 244.421875 156.023438 245.253906 C 156.1875 246.082031 156.269531 246.921875 156.269531 247.765625 Z M 156.269531 247.765625 " fill-opacity="1" fill-rule="nonzero"/><path fill="#000000" d="M 143.378906 265.789062 C 133.4375 265.789062 125.347656 257.703125 125.347656 247.765625 C 125.347656 237.828125 133.4375 229.746094 143.378906 229.746094 C 153.320312 229.746094 161.410156 237.828125 161.410156 247.765625 C 161.410156 257.703125 153.320312 265.789062 143.378906 265.789062 Z M 143.378906 240.019531 C 139.105469 240.019531 135.628906 243.496094 135.628906 247.769531 C 135.628906 252.039062 139.105469 255.515625 143.378906 255.515625 C 147.652344 255.515625 151.128906 252.039062 151.128906 247.769531 C 151.128906 243.496094 147.652344 240.019531 143.378906 240.019531 Z M 143.378906 240.019531 " fill-opacity="1" fill-rule="nonzero"/><path fill="#ab66a9" d="M 187.644531 292.644531 C 187.644531 293.195312 187.589844 293.738281 187.484375 294.277344 C 187.375 294.816406 187.214844 295.339844 187.007812 295.847656 C 186.796875 296.359375 186.539062 296.839844 186.230469 297.296875 C 185.925781 297.753906 185.578125 298.179688 185.191406 298.566406 C 184.800781 298.957031 184.378906 299.304688 183.917969 299.609375 C 183.460938 299.914062 182.980469 300.171875 182.472656 300.382812 C 181.964844 300.59375 181.4375 300.75 180.898438 300.859375 C 180.359375 300.964844 179.816406 301.019531 179.265625 301.019531 C 178.714844 301.019531 178.167969 300.964844 177.628906 300.859375 C 177.089844 300.75 176.566406 300.59375 176.058594 300.382812 C 175.550781 300.171875 175.066406 299.914062 174.609375 299.609375 C 174.152344 299.304688 173.730469 298.957031 173.339844 298.566406 C 172.949219 298.179688 172.605469 297.753906 172.296875 297.296875 C 171.992188 296.839844 171.734375 296.359375 171.523438 295.847656 C 171.3125 295.339844 171.152344 294.816406 171.046875 294.277344 C 170.9375 293.738281 170.886719 293.195312 170.886719 292.644531 C 170.886719 292.09375 170.9375 291.550781 171.046875 291.011719 C 171.152344 290.46875 171.3125 289.945312 171.523438 289.4375 C 171.734375 288.929688 171.992188 288.449219 172.296875 287.992188 C 172.605469 287.535156 172.949219 287.109375 173.339844 286.722656 C 173.730469 286.332031 174.152344 285.984375 174.609375 285.679688 C 175.066406 285.375 175.550781 285.117188 176.058594 284.90625 C 176.566406 284.695312 177.089844 284.535156 177.628906 284.429688 C 178.167969 284.320312 178.714844 284.269531 179.265625 284.269531 C 179.816406 284.269531 180.359375 284.320312 180.898438 284.429688 C 181.4375 284.535156 181.964844 284.695312 182.472656 284.90625 C 182.980469 285.117188 183.460938 285.375 183.917969 285.679688 C 184.378906 285.984375 184.800781 286.332031 185.191406 286.722656 C 185.578125 287.109375 185.925781 287.535156 186.230469 287.992188 C 186.539062 288.449219 186.796875 288.929688 187.007812 289.4375 C 187.214844 289.945312 187.375 290.46875 187.484375 291.011719 C 187.589844 291.550781 187.644531 292.09375 187.644531 292.644531 Z M 187.644531 292.644531 " fill-opacity="1" fill-rule="nonzero"/><path fill="#000000" d="M 179.265625 306.15625 C 171.8125 306.15625 165.746094 300.09375 165.746094 292.644531 C 165.746094 285.191406 171.8125 279.132812 179.265625 279.132812 C 186.71875 279.132812 192.78125 285.191406 192.78125 292.644531 C 192.78125 300.097656 186.71875 306.15625 179.265625 306.15625 Z M 179.265625 289.40625 C 177.476562 289.40625 176.023438 290.859375 176.023438 292.644531 C 176.023438 294.429688 177.476562 295.882812 179.265625 295.882812 C 181.050781 295.882812 182.503906 294.429688 182.503906 292.644531 C 182.503906 290.859375 181.050781 289.40625 179.265625 289.40625 Z M 179.265625 289.40625 " fill-opacity="1" fill-rule="nonzero"/></svg>