<svg xmlns="http://www.w3.org/2000/svg" xmlns:xlink="http://www.w3.org/1999/xlink" width="50" zoomAndPan="magnify" viewBox="0 0 37.5 37.499999" height="50" preserveAspectRatio="xMidYMid meet" version="1.0"><defs><clipPath id="5b480328d9"><path d="M 18.503906 0 L 37.007812 0 L 37.007812 37.007812 L 18.503906 37.007812 Z M 18.503906 0 " clip-rule="nonzero"/></clipPath></defs><g clip-path="url(#5b480328d9)"><path fill="#ffffff" d="M 39.277344 11.5 C 39.960938 11.5 40.523438 12.0625 40.523438 12.746094 C 40.523438 13.433594 39.960938 13.992188 39.277344 13.992188 C 38.59375 13.992188 38.03125 13.433594 38.03125 12.746094 C 38.03125 12.0625 38.578125 11.5 39.277344 11.5 Z M 29.507812 11.5 C 30.195312 11.5 30.753906 12.0625 30.753906 12.746094 C 30.753906 13.433594 30.195312 13.992188 29.507812 13.992188 C 28.824219 13.992188 28.261719 13.433594 28.261719 12.746094 C 28.261719 12.0625 28.824219 11.5 29.507812 11.5 Z M 19.753906 11.5 C 20.4375 11.5 21 12.0625 21 12.746094 C 21 13.433594 20.4375 13.992188 19.753906 13.992188 C 19.066406 13.992188 18.507812 13.433594 18.507812 12.746094 C 18.507812 12.0625 19.066406 11.5 19.753906 11.5 Z M 49.035156 11.5 C 49.71875 11.5 50.28125 12.0625 50.28125 12.746094 C 50.28125 13.433594 49.71875 13.992188 49.035156 13.992188 C 48.347656 13.992188 47.789062 13.433594 47.789062 12.746094 C 47.789062 12.0625 48.347656 11.5 49.035156 11.5 Z M 39.277344 23.015625 C 39.960938 23.015625 40.523438 23.574219 40.523438 24.261719 C 40.523438 24.945312 39.960938 25.507812 39.277344 25.507812 C 38.59375 25.507812 38.03125 24.945312 38.03125 24.261719 C 38.03125 23.574219 38.578125 23.015625 39.277344 23.015625 Z M 29.507812 23.015625 C 30.195312 23.015625 30.753906 23.574219 30.753906 24.261719 C 30.753906 24.945312 30.195312 25.507812 29.507812 25.507812 C 28.824219 25.507812 28.261719 24.945312 28.261719 24.261719 C 28.261719 23.574219 28.824219 23.015625 29.507812 23.015625 Z M 19.753906 23.015625 C 20.4375 23.015625 21 23.574219 21 24.261719 C 21 24.945312 20.4375 25.507812 19.753906 25.507812 C 19.066406 25.507812 18.507812 24.945312 18.507812 24.261719 C 18.507812 23.574219 19.066406 23.015625 19.753906 23.015625 Z M 49.035156 23.015625 C 49.71875 23.015625 50.28125 23.574219 50.28125 24.261719 C 50.28125 24.945312 49.71875 25.507812 49.035156 25.507812 C 48.347656 25.507812 47.789062 24.945312 47.789062 24.261719 C 47.789062 23.574219 48.347656 23.015625 49.035156 23.015625 Z M 39.277344 0 C 39.960938 0 40.523438 0.5625 40.523438 1.246094 C 40.523438 1.929688 39.960938 2.492188 39.277344 2.492188 C 38.59375 2.492188 38.03125 1.929688 38.03125 1.246094 C 38.03125 0.5625 38.578125 0 39.277344 0 Z M 29.507812 0 C 30.195312 0 30.753906 0.5625 30.753906 1.246094 C 30.753906 1.929688 30.195312 2.492188 29.507812 2.492188 C 28.824219 2.492188 28.261719 1.929688 28.261719 1.246094 C 28.261719 0.5625 28.824219 0 29.507812 0 Z M 19.753906 0 C 20.4375 0 21 0.5625 21 1.246094 C 21 1.929688 20.4375 2.492188 19.753906 2.492188 C 19.066406 2.492188 18.507812 1.929688 18.507812 1.246094 C 18.507812 0.5625 19.066406 0 19.753906 0 Z M 49.035156 0 C 49.71875 0 50.28125 0.5625 50.28125 1.246094 C 50.28125 1.929688 49.71875 2.492188 49.035156 2.492188 C 48.347656 2.492188 47.789062 1.929688 47.789062 1.246094 C 47.789062 0.5625 48.347656 0 49.035156 0 Z M 39.277344 34.515625 C 39.960938 34.515625 40.523438 35.074219 40.523438 35.761719 C 40.523438 36.445312 39.960938 37.007812 39.277344 37.007812 C 38.59375 37.007812 38.03125 36.445312 38.03125 35.761719 C 38.03125 35.074219 38.578125 34.515625 39.277344 34.515625 Z M 29.507812 34.515625 C 30.195312 34.515625 30.753906 35.074219 30.753906 35.761719 C 30.753906 36.445312 30.195312 37.007812 29.507812 37.007812 C 28.824219 37.007812 28.261719 36.445312 28.261719 35.761719 C 28.261719 35.074219 28.824219 34.515625 29.507812 34.515625 Z M 19.753906 34.515625 C 20.4375 34.515625 21 35.074219 21 35.761719 C 21 36.445312 20.4375 37.007812 19.753906 37.007812 C 19.066406 37.007812 18.507812 36.445312 18.507812 35.761719 C 18.507812 35.074219 19.066406 34.515625 19.753906 34.515625 Z M 49.035156 34.515625 C 49.71875 34.515625 50.28125 35.074219 50.28125 35.761719 C 50.28125 36.445312 49.71875 37.007812 49.035156 37.007812 C 48.347656 37.007812 47.789062 36.445312 47.789062 35.761719 C 47.789062 35.074219 48.347656 34.515625 49.035156 34.515625 Z M 49.035156 34.515625 " fill-opacity="1" fill-rule="nonzero"/></g></svg>