<svg xmlns="http://www.w3.org/2000/svg" xmlns:xlink="http://www.w3.org/1999/xlink" width="40" zoomAndPan="magnify" viewBox="0 0 30 60" height="80" preserveAspectRatio="xMidYMid meet" version="1.0"><defs><clipPath id="33d225a8c6"><path d="M 6.742188 4.660156 L 30 4.660156 L 30 55.660156 L 6.742188 55.660156 Z M 6.742188 4.660156 " clip-rule="nonzero"/></clipPath></defs><g clip-path="url(#33d225a8c6)"><path fill="#ffffff" d="M 35.183594 20.410156 C 36.121094 20.410156 36.890625 21.175781 36.890625 22.113281 C 36.890625 23.054688 36.121094 23.820312 35.183594 23.820312 C 34.246094 23.820312 33.476562 23.054688 33.476562 22.113281 C 33.476562 21.175781 34.230469 20.410156 35.183594 20.410156 Z M 21.808594 20.410156 C 22.746094 20.410156 23.515625 21.175781 23.515625 22.113281 C 23.515625 23.054688 22.746094 23.820312 21.808594 23.820312 C 20.871094 23.820312 20.101562 23.054688 20.101562 22.113281 C 20.101562 21.175781 20.871094 20.410156 21.808594 20.410156 Z M 8.449219 20.410156 C 9.386719 20.410156 10.15625 21.175781 10.15625 22.113281 C 10.15625 23.054688 9.386719 23.820312 8.449219 23.820312 C 7.511719 23.820312 6.742188 23.054688 6.742188 22.113281 C 6.742188 21.175781 7.511719 20.410156 8.449219 20.410156 Z M 48.542969 20.410156 C 49.480469 20.410156 50.25 21.175781 50.25 22.113281 C 50.25 23.054688 49.480469 23.820312 48.542969 23.820312 C 47.605469 23.820312 46.835938 23.054688 46.835938 22.113281 C 46.835938 21.175781 47.605469 20.410156 48.542969 20.410156 Z M 35.183594 36.171875 C 36.121094 36.171875 36.890625 36.941406 36.890625 37.878906 C 36.890625 38.816406 36.121094 39.585938 35.183594 39.585938 C 34.246094 39.585938 33.476562 38.816406 33.476562 37.878906 C 33.476562 36.941406 34.230469 36.171875 35.183594 36.171875 Z M 21.808594 36.171875 C 22.746094 36.171875 23.515625 36.941406 23.515625 37.878906 C 23.515625 38.816406 22.746094 39.585938 21.808594 39.585938 C 20.871094 39.585938 20.101562 38.816406 20.101562 37.878906 C 20.101562 36.941406 20.871094 36.171875 21.808594 36.171875 Z M 8.449219 36.171875 C 9.386719 36.171875 10.15625 36.941406 10.15625 37.878906 C 10.15625 38.816406 9.386719 39.585938 8.449219 39.585938 C 7.511719 39.585938 6.742188 38.816406 6.742188 37.878906 C 6.742188 36.941406 7.511719 36.171875 8.449219 36.171875 Z M 48.542969 36.171875 C 49.480469 36.171875 50.25 36.941406 50.25 37.878906 C 50.25 38.816406 49.480469 39.585938 48.542969 39.585938 C 47.605469 39.585938 46.835938 38.816406 46.835938 37.878906 C 46.835938 36.941406 47.605469 36.171875 48.542969 36.171875 Z M 35.183594 4.660156 C 36.121094 4.660156 36.890625 5.429688 36.890625 6.367188 C 36.890625 7.304688 36.121094 8.074219 35.183594 8.074219 C 34.246094 8.074219 33.476562 7.304688 33.476562 6.367188 C 33.476562 5.429688 34.230469 4.660156 35.183594 4.660156 Z M 21.808594 4.660156 C 22.746094 4.660156 23.515625 5.429688 23.515625 6.367188 C 23.515625 7.304688 22.746094 8.074219 21.808594 8.074219 C 20.871094 8.074219 20.101562 7.304688 20.101562 6.367188 C 20.101562 5.429688 20.871094 4.660156 21.808594 4.660156 Z M 8.449219 4.660156 C 9.386719 4.660156 10.15625 5.429688 10.15625 6.367188 C 10.15625 7.304688 9.386719 8.074219 8.449219 8.074219 C 7.511719 8.074219 6.742188 7.304688 6.742188 6.367188 C 6.742188 5.429688 7.511719 4.660156 8.449219 4.660156 Z M 48.542969 4.660156 C 49.480469 4.660156 50.25 5.429688 50.25 6.367188 C 50.25 7.304688 49.480469 8.074219 48.542969 8.074219 C 47.605469 8.074219 46.835938 7.304688 46.835938 6.367188 C 46.835938 5.429688 47.605469 4.660156 48.542969 4.660156 Z M 35.183594 51.921875 C 36.121094 51.921875 36.890625 52.6875 36.890625 53.628906 C 36.890625 54.566406 36.121094 55.332031 35.183594 55.332031 C 34.246094 55.332031 33.476562 54.566406 33.476562 53.628906 C 33.476562 52.6875 34.230469 51.921875 35.183594 51.921875 Z M 21.808594 51.921875 C 22.746094 51.921875 23.515625 52.6875 23.515625 53.628906 C 23.515625 54.566406 22.746094 55.332031 21.808594 55.332031 C 20.871094 55.332031 20.101562 54.566406 20.101562 53.628906 C 20.101562 52.6875 20.871094 51.921875 21.808594 51.921875 Z M 8.449219 51.921875 C 9.386719 51.921875 10.15625 52.6875 10.15625 53.628906 C 10.15625 54.566406 9.386719 55.332031 8.449219 55.332031 C 7.511719 55.332031 6.742188 54.566406 6.742188 53.628906 C 6.742188 52.6875 7.511719 51.921875 8.449219 51.921875 Z M 48.542969 51.921875 C 49.480469 51.921875 50.25 52.6875 50.25 53.628906 C 50.25 54.566406 49.480469 55.332031 48.542969 55.332031 C 47.605469 55.332031 46.835938 54.566406 46.835938 53.628906 C 46.835938 52.6875 47.605469 51.921875 48.542969 51.921875 Z M 48.542969 51.921875 " fill-opacity="1" fill-rule="nonzero"/></g></svg>